<?xml version="1.0" standalone="no"?>
<!DOCTYPE svg PUBLIC "-//W3C//DTD SVG 1.1//EN" "http://www.w3.org/Graphics/SVG/1.1/DTD/svg11.dtd" >
<svg xmlns="http://www.w3.org/2000/svg">
<metadata>Generated by IcoMoon</metadata>
<defs>
<font id="icomoon" horiz-adv-x="1024">
<font-face units-per-em="1024" ascent="960" descent="-64" />
<missing-glyph horiz-adv-x="1024" />
<glyph unicode="&#x20;" horiz-adv-x="512" d="" />
<glyph unicode="&#xe900;" glyph-name="add-blue" d="M102.4 448c0 226.216 183.384 409.6 409.6 409.6s409.6-183.384 409.6-409.6c0-226.217-183.383-409.6-409.6-409.6s-409.6 183.383-409.6 409.6zM512 960c-282.77 0-512-229.23-512-512 0-282.767 229.23-512 512-512 282.767 0 512 229.233 512 512 0 282.77-229.233 512-512 512zM512 192c-28.277 0-51.2 22.922-51.2 51.2v153.6h-153.6c-28.277 0-51.2 22.922-51.2 51.2s22.923 51.2 51.2 51.2h153.6v153.6c0 28.277 22.923 51.2 51.2 51.2s51.2-22.923 51.2-51.2v-153.6h153.6c28.278 0 51.2-22.923 51.2-51.2s-22.922-51.2-51.2-51.2h-153.6v-153.6c0-28.278-22.922-51.2-51.2-51.2z" />
<glyph unicode="&#xe901;" glyph-name="arrow-down-blue" d="M425.73 164.085l-389.737 393.535c-76.88 77.628-22.442 210.381 86.27 210.381h779.476c108.712 0 163.149-132.753 86.269-210.381l-389.737-393.535c-47.649-48.113-124.892-48.113-172.541 0z" />
<glyph unicode="&#xe902;" glyph-name="arrow-down-gray" d="M1009.628 650.42c-20.868 20.917-56.832 22.801-80.311 4.208l-404.718-320.444c-7.185-5.688-18.011-5.688-25.196 0l-404.718 320.444c-23.483 18.593-59.44 16.709-80.314-4.208s-18.758-52.946 4.724-71.539l404.717-320.444c50.294-39.821 126.083-39.821 176.377 0l404.714 320.444c23.486 18.593 25.6 50.622 4.725 71.539z" />
<glyph unicode="&#xe903;" glyph-name="arrow-right-gray" d="M733.818 217.571c-21.732-29.449-17.314-72.41 9.868-95.955s66.834-18.758 88.567 10.691l159.561 216.218c42.914 58.164 42.914 140.784 0 198.948l-159.561 216.219c-21.733 29.449-61.385 34.236-88.567 10.691s-31.6-66.505-9.868-95.955l119.661-162.159h-790.466c-34.801 0-63.013-30.566-63.013-68.27s28.212-68.27 63.013-68.27h790.466l-119.661-162.159z" />
<glyph unicode="&#xe904;" glyph-name="arrow-top-gray" d="M12.932 209.786c18.786-21.872 51.148-23.843 72.283-4.401l426.784 392.633 426.783-392.633c21.135-19.443 53.499-17.471 72.284 4.401 18.785 21.874 16.886 55.368-4.25 74.811l-426.788 392.633c-38.794 35.693-97.262 35.693-136.060 0l-426.784-392.633c-21.134-19.443-23.038-52.937-4.252-74.811z" />
<glyph unicode="&#xe905;" glyph-name="arrow-white" d="M742.506 223.989c-17.658-22.081-14.069-54.299 8.017-71.957s54.304-14.069 71.957 8.017l179.1 224.012c29.893 37.387 29.893 90.494 0 127.88l-179.1 224.012c-17.652 22.084-49.87 25.674-71.957 8.017s-25.675-49.872-8.017-71.958l138.169-172.816h-829.478c-28.276 0-51.196-22.921-51.196-51.196s22.921-51.196 51.196-51.196h829.478l-138.169-172.817z" />
<glyph unicode="&#xe906;" glyph-name="bin" d="M363.095 820.363c0 11.017 8.696 19.948 19.422 19.948h258.968c10.727 0 19.422-8.931 19.422-19.948v-53.194c0-11.017-8.695-19.948-19.422-19.948h-258.967c-10.727 0-19.423 8.932-19.423 19.948v53.194zM247.937 747.221c-0.907 6.515-1.377 13.176-1.377 19.948v53.194c0 77.119 60.87 139.637 135.957 139.637h258.968c75.087 0 135.957-62.517 135.957-139.637v-53.194c0-6.773-0.469-13.433-1.377-19.948h150.285c32.177 0 58.266-26.793 58.266-59.844s-26.088-59.844-58.266-59.844h-45.324v-551.898c0-77.115-60.868-139.634-135.956-139.634h-458.939c-74.446 0-135.048 61.495-135.948 137.949l-6.512 553.585h-46.019c-32.18 0-58.268 26.793-58.268 59.844s26.087 59.844 58.268 59.844h150.283zM382.518 627.532h-122.302l6.495-552.134c0.128-10.925 8.786-19.708 19.421-19.708h458.939c10.727 0 19.423 8.932 19.423 19.944v551.898h-381.976zM466.682 527.792c0 33.051-26.088 59.844-58.268 59.844s-58.267-26.793-58.267-59.844v-319.168c0-33.052 26.087-59.845 58.267-59.845s58.268 26.793 58.268 59.845v319.168zM615.588 587.637c32.18 0 58.267-26.793 58.267-59.844v-319.168c0-33.052-26.087-59.845-58.267-59.845s-58.268 26.793-58.268 59.845v319.168c0 33.051 26.088 59.844 58.268 59.844z" />
<glyph unicode="&#xe907;" glyph-name="calender-darkgray" d="M373.729 903.111c0 31.419-24.224 56.889-54.106 56.889s-54.105-25.47-54.105-56.889v-44.247h-66.129c-69.725 0-126.247-59.43-126.247-132.741v-657.384c0-73.311 56.522-132.739 126.247-132.739h625.223c69.72 0 126.245 59.429 126.245 132.739v657.384c0 73.311-56.525 132.741-126.245 132.741h-66.128v44.247c0 31.419-24.225 56.889-54.111 56.889-29.879 0-54.103-25.47-54.103-56.889v-44.247h-276.539v44.247zM842.641 555.457h-661.288v170.666c0 10.473 8.075 18.963 18.035 18.963h66.129v-44.247c0-31.418 24.224-56.889 54.105-56.889s54.106 25.471 54.106 56.889v44.247h276.539v-44.247c0-31.418 24.224-56.889 54.103-56.889 29.886 0 54.111 25.471 54.111 56.889v44.247h66.128c9.962 0 18.030-8.49 18.030-18.963v-170.666zM181.353 441.679h661.288v-372.939c0-10.474-8.067-18.959-18.030-18.959h-625.223c-9.961 0-18.035 8.485-18.035 18.959v372.939z" />
<glyph unicode="&#xe908;" glyph-name="arrow-in-circle" horiz-adv-x="1075" d="M127.9 448c0 226.216 183.384 409.6 409.6 409.6s409.6-183.384 409.6-409.6c0-226.217-183.383-409.6-409.6-409.6s-409.6 183.383-409.6 409.6zM25.5 448c0-282.767 229.23-512 512-512 282.767 0 512 229.233 512 512 0 282.77-229.233 512-512 512-282.77 0-512-229.23-512-512zM574.779 637.936c20.065 19.922 52.485 19.804 72.407-0.264l116.675-117.528c39.639-39.928 39.639-104.358 0-144.284l-116.675-117.53c-19.922-20.070-52.342-20.188-72.407-0.266-20.070 19.922-20.188 52.342-0.266 72.407l68.101 68.603h-309.983c-28.277 0-51.2 22.922-51.2 51.198 0 28.277 22.923 51.2 51.2 51.2h305.478l-63.596 64.057c-19.922 20.067-19.804 52.485 0.266 72.407z" />
<glyph unicode="&#xe909;" glyph-name="cart" d="M0.001 902.758c0 31.614 25.891 57.242 57.828 57.242h87.336c67.148 0 124.079-48.876 133.576-114.677l12.822-88.851h597.46c85.148 0 149.011-77.111 132.31-159.76l-71.962-356.175c-12.615-62.429-67.993-107.37-132.31-107.37h-435.347c-67.148 0-124.079 48.875-133.576 114.673l-83.892 581.292c-1.356 9.4-9.489 16.382-19.082 16.382h-87.336c-31.937 0-57.828 25.628-57.828 57.242zM308.086 641.987l54.545-377.953c1.356-9.401 9.489-16.384 19.082-16.384h435.347c9.187 0 17.1 6.421 18.9 15.341l71.962 356.172c2.389 11.806-6.733 22.823-18.9 22.823h-580.937zM417.647 12.323c0-42.15-34.52-76.323-77.104-76.323s-77.104 34.173-77.104 76.323c0 42.155 34.52 76.323 77.104 76.323s77.104-34.168 77.104-76.323zM854.568-64c42.584 0 77.103 34.173 77.103 76.323 0 42.155-34.518 76.323-77.103 76.323s-77.103-34.168-77.103-76.323c0-42.15 34.518-76.323 77.103-76.323zM362.631 264.036l-54.545 377.953h580.937c12.166 0 21.29-11.016 18.9-22.823l-71.962-356.172c-1.799-8.918-9.713-15.341-18.9-15.341h-435.347c-9.592 0-17.726 6.983-19.082 16.384z" />
<glyph unicode="&#xe90b;" glyph-name="check" d="M998.001 860.833c28.513-23.129 34.492-67.176 13.357-98.38l-456.954-674.725c-49.368-72.892-143.405-88.104-209.926-33.968l-318.558 259.254c-28.479 23.176-34.399 67.231-13.223 98.401s61.431 37.649 89.909 14.472l318.558-259.254c9.507-7.737 22.937-5.564 29.992 4.852l456.954 674.726c21.135 31.204 61.377 37.751 89.891 14.621z" />
<glyph unicode="&#xe90d;" glyph-name="comments" d="M549.455 820.377c-211.92 0-381.447-166.658-381.447-369.483 0-58.844 14.168-114.384 39.386-163.715 11.21-21.924 5.713-44.118 2.267-54.916-4.125-12.926-10.832-25.936-17.602-37.559-12.783-21.943-30.664-47.013-46.888-69.756-1.056-1.48-2.104-2.951-3.144-4.408-7.089-9.947-13.776-19.378-19.85-28.212 13.202 5.376 27.635 11.678 42.999 18.484 2.763 1.219 5.557 2.462 8.374 3.71 26.41 11.72 54.915 24.372 79.731 33.081 13.766 4.831 28.337 9.169 42.165 11.301 12.25 1.89 31.941 3.44 50.593-5.567 2.336-1.131 4.722-2.285 7.155-3.463 27.957-13.532 62.105-30.060 97.205-43.745 39.181-15.277 74.004-24.717 99.056-24.717 211.925 0 381.449 166.657 381.449 369.482s-169.525 369.483-381.449 369.483zM67.571 75.64c0.009 0.009 0.189 0.009 0.513-0.023-0.359 0-0.522 0.014-0.513 0.023zM74.914 450.894c0 256.71 213.714 462.577 474.542 462.577 260.832 0 474.544-205.868 474.544-462.577 0-256.712-213.712-462.576-474.544-462.576-43.275 0-91.631 14.998-132.875 31.079-38.719 15.096-76.069 33.183-103.689 46.557-0.755 0.368-1.503 0.731-2.243 1.089-0.31-0.042-0.647-0.093-1.012-0.149-5.615-0.866-14.015-3.091-25.52-7.131-21.067-7.396-46.032-18.466-73.363-30.581-2.607-1.159-5.237-2.323-7.886-3.496-28.98-12.833-60.881-26.765-88.089-34.985-13.491-4.077-28.67-7.657-43.378-8.122-13.596-0.428-36.605 1.531-54.425 19.611-20.462 20.765-17.885 46.976-15.118 59.664 3.040 13.937 9.481 27.547 15.645 38.848 12.584 23.074 31.623 49.889 48.718 73.871l2.009 2.821c17.29 24.251 32.85 46.077 43.39 64.17 3.51 6.028 5.909 10.719 7.466 14.207-28.34 59.306-44.17 125.454-44.17 195.125zM121.396 262.229c0.027 0.014-0.021-0.303-0.22-0.996 0.094 0.633 0.194 0.977 0.22 0.996zM313.48 67.252c-0.005-0.005-0.149-0.009-0.416 0.009 0.288 0.009 0.421 0 0.416-0.009z" />
<glyph unicode="&#xe90e;" glyph-name="document" d="M768 789.333v-682.667h-512v682.667h512zM384 661.333c-23.564 0-42.667-19.103-42.667-42.667s19.103-42.667 42.667-42.667h85.333c23.565 0 42.667 19.103 42.667 42.667s-19.102 42.667-42.667 42.667h-85.333zM341.333 448c0-23.565 19.103-42.667 42.667-42.667h170.667c23.565 0 42.667 19.102 42.667 42.667s-19.102 42.667-42.667 42.667h-170.667c-23.564 0-42.667-19.102-42.667-42.667zM384 320c-23.564 0-42.667-19.102-42.667-42.667s19.103-42.667 42.667-42.667h256c23.565 0 42.667 19.102 42.667 42.667s-19.102 42.667-42.667 42.667h-256zM170.667 789.333c0 47.128 38.205 85.333 85.333 85.333h512c47.13 0 85.333-38.205 85.333-85.333v-682.667c0-47.13-38.204-85.333-85.333-85.333h-512c-47.128 0-85.333 38.204-85.333 85.333v682.667zM768 789.333h-512v-682.667h512v682.667z" />
<glyph unicode="&#xe911;" glyph-name="edit-pen" d="M937.567 920.77c-47.806 48.232-123.897 52.512-176.713 9.94l-555.502-447.744c-14.689-11.839-26.717-26.691-35.289-43.572l-35.578-70.064c-58.777-115.747 63.952-239.582 178.666-180.277l77.152 39.888c7.902 4.086 15.379 8.961 22.317 14.553l549.019 442.516c61.842 49.848 66.984 142.882 11.015 199.356l-35.087 35.404zM831.868 841.012c7.548 6.082 18.417 5.47 25.242-1.42l35.087-35.404c8.002-8.068 7.263-21.358-1.573-28.48l-549.017-442.516c-0.991-0.799-2.059-1.495-3.188-2.079l-77.152-39.887c-16.388-8.472-33.92 9.218-25.523 25.754l35.578 70.064c1.224 2.412 2.943 4.533 5.041 6.224l555.505 447.744zM56.889 50.805c-31.419 0-56.889-25.702-56.889-57.403s25.47-57.403 56.889-57.403h910.22c31.422 0 56.891 25.702 56.891 57.403s-25.468 57.403-56.891 57.403h-910.22z" />
<glyph unicode="&#xe913;" glyph-name="exclamation-point-in-circle" d="M512 857.599c-226.215 0-409.599-183.384-409.599-409.599s183.384-409.599 409.599-409.599c226.217 0 409.599 183.383 409.599 409.599s-183.383 409.599-409.599 409.599zM512 729.616c28.278 0 51.2-22.924 51.2-51.2v-305.567c0-28.273-22.922-51.2-51.2-51.2s-51.2 22.927-51.2 51.2v305.567c0 28.277 22.922 51.2 51.2 51.2zM563.2 217.549c0-28.258-22.922-51.164-51.2-51.164s-51.2 22.907-51.2 51.164c0 28.258 22.922 51.164 51.2 51.164s51.2-22.907 51.2-51.164zM102.401 448c0 226.215 183.384 409.599 409.599 409.599s409.599-183.384 409.599-409.599c0-226.217-183.383-409.599-409.599-409.599s-409.599 183.383-409.599 409.599zM512 960c-282.77 0-512-229.23-512-512 0-282.767 229.23-512 512-512 282.767 0 512 229.232 512 512 0 282.77-229.232 512-512 512z" />
<glyph unicode="&#xe914;" glyph-name="filter-black" d="M26.056 789.183c-59.115 66.594-11.137 170.817 78.636 170.817h814.615c89.774 0 137.754-104.222 78.638-170.817l-276.966-312.008v-335.054c0-39.009-22.364-74.675-57.759-92.119l-208.979-102.994c-69.475-34.243-151.217 15.555-151.217 92.119v438.048l-276.967 312.008zM919.306 857.006h-814.615l276.967-312.008c16.667-18.775 25.853-42.874 25.853-67.822v-438.048l208.977 102.994v335.054c0 24.948 9.185 49.047 25.851 67.822l276.966 312.008zM104.692 857.006h814.615l-276.966-312.008c-16.666-18.775-25.851-42.874-25.851-67.822v-335.054l-208.977-102.994v438.048c0 24.948-9.186 49.047-25.853 67.822l-276.967 312.008z" />
<glyph unicode="&#xe915;" glyph-name="guide" d="M512 857.599c-226.215 0-409.599-183.384-409.599-409.599s183.384-409.599 409.599-409.599c226.217 0 409.599 183.383 409.599 409.599s-183.383 409.599-409.599 409.599zM356.259 691.819c30.989 34.196 82.464 72.659 155.741 72.659 72.904 0 129.991-37.213 163.026-91.408 32.267-52.934 41.063-120.509 25.206-185.431-13.906-56.934-60.313-102.508-93.671-130.018-17.94-14.797-35.066-26.722-47.672-34.944-6.338-4.136-11.622-7.388-15.406-9.656-1.895-1.136-3.415-2.028-4.516-2.663l-1.331-0.763-0.415-0.235-0.138-0.082-0.056-0.031c0 0-0.046-0.020-25.026 44.666l25.026-44.666c-24.684-13.799-55.921-4.997-69.719 19.686-13.783 24.658-4.987 55.823 19.645 69.637l0.046 0.025 0.722 0.415c0.65 0.379 1.705 0.994 3.108 1.832 2.806 1.685 6.984 4.249 12.119 7.598 10.332 6.743 24.203 16.42 38.461 28.181 31.052 25.61 53.888 52.972 59.346 75.305 10.122 41.45 3.425 80.623-13.164 107.843-15.826 25.96-40.975 42.307-75.592 42.307-34.248 0-60.252-17.376-79.861-39.019-9.718-10.721-16.993-21.626-21.822-29.87-2.381-4.070-4.084-7.354-5.118-9.45-0.515-1.044-0.859-1.782-1.032-2.161l-0.121-0.269c-11.149-25.838-41.092-37.852-67.026-26.833-26.026 11.056-38.162 41.117-27.107 67.142l47.124-20.018c-47.124 20.018-47.124 20.018-47.124 20.018l0.073 0.172 0.092 0.212 0.24 0.551 0.709 1.578c0.574 1.256 1.355 2.918 2.346 4.928 1.98 4.012 4.823 9.454 8.568 15.852 7.43 12.696 18.732 29.711 34.316 46.908zM563.2 166.349c0-28.258-22.922-51.164-51.2-51.164s-51.2 22.907-51.2 51.164c0 28.258 22.922 51.169 51.2 51.169s51.2-22.912 51.2-51.169zM102.401 448c0 226.215 183.384 409.599 409.599 409.599s409.599-183.384 409.599-409.599c0-226.217-183.383-409.599-409.599-409.599s-409.599 183.383-409.599 409.599zM512 960c-282.77 0-512-229.23-512-512 0-282.767 229.23-512 512-512 282.767 0 512 229.232 512 512 0 282.77-229.232 512-512 512z" />
<glyph unicode="&#xe916;" glyph-name="home-black" d="M523.683 840.795c-6.736 6.069-16.63 6.069-23.366 0l-312.611-281.639c-4.030-3.631-6.352-8.953-6.352-14.558v-474.834c0-10.552 8.074-19.11 18.035-19.11h162.317v160.944c0 73.879 56.522 133.769 126.247 133.769h48.236c69.722 0 126.247-59.889 126.247-133.769v-160.944h162.178c9.958 0 18.033 8.558 18.033 19.11v474.834c0 5.605-2.322 10.927-6.354 14.558l-312.609 281.639zM469.918 50.654h84.306v160.944c0 10.557-8.074 19.11-18.035 19.11h-48.236c-9.961 0-18.035-8.553-18.035-19.11v-160.944zM523.683 840.795c-6.736 6.069-16.63 6.069-23.366 0l-312.611-281.639c-4.030-3.631-6.352-8.953-6.352-14.558v-474.834c0-10.552 8.074-19.11 18.035-19.11h162.317v-114.654h-162.317c-69.723 0-126.247 59.889-126.247 133.763v474.834c0 39.234 16.257 76.491 44.467 101.905l312.611 281.639c47.149 42.478 116.41 42.478 163.559 0l312.613-281.639c28.209-25.415 44.466-62.672 44.466-101.905v-474.834c0-73.874-56.524-133.763-126.245-133.763h-162.178v114.654h162.178c9.958 0 18.033 8.558 18.033 19.11v474.834c0 5.605-2.322 10.927-6.354 14.558l-312.609 281.639zM469.918-63.999h84.306v114.654h-84.306v-114.654z" />
<glyph unicode="&#xe918;" glyph-name="insta-bl" d="M290.28 960c-153.043 0-277.151-127.375-277.151-284.445v-455.111c0-157.070 124.108-284.445 277.151-284.445h443.44c153.044 0 277.152 127.376 277.152 284.445v455.111c0 157.070-124.109 284.445-277.152 284.445h-443.44zM844.582 846.222c30.597 0 55.429-25.486 55.429-56.888s-24.832-56.888-55.429-56.888c-30.597 0-55.429 25.486-55.429 56.888s24.832 56.888 55.429 56.888zM512.001 732.444c153.044 0 277.152-127.376 277.152-284.445s-124.109-284.445-277.152-284.445c-153.044 0-277.151 127.376-277.151 284.445s124.108 284.445 277.151 284.445zM512.001 618.666c-44.104 0-86.402-17.98-117.587-49.989-31.185-32.005-48.703-75.415-48.703-120.678s17.518-88.673 48.703-120.678c31.185-32.008 73.483-49.989 117.587-49.989s86.402 17.98 117.587 49.989c31.185 32.005 48.703 75.415 48.703 120.678s-17.518 88.673-48.703 120.678c-31.185 32.008-73.483 49.989-117.587 49.989z" />
<glyph unicode="&#xe919;" glyph-name="linkedin-bl" d="M910.222 960h-796.443c-62.861 0-113.778-50.916-113.778-113.778v-796.443c0-62.861 50.916-113.778 113.778-113.778h796.443c62.861 0 113.778 50.917 113.778 113.778v796.443c0 62.861-50.917 113.778-113.778 113.778zM341.333 163.557h-143.531v398.222h143.531v-398.222zM267.036 634.767c-43.86 0-73.159 29.241-73.159 68.266s29.241 68.267 77.996 68.267c43.86 0 73.159-29.242 73.159-68.267s-29.241-68.266-77.995-68.266zM853.333 163.557h-138.925v217.658c0 60.186-37.033 74.067-50.914 74.067s-60.189-9.274-60.189-74.067c0-9.274 0-217.658 0-217.658h-143.532v398.222h143.532v-55.579c18.488 32.425 55.524 55.579 124.984 55.579 69.464 0 125.044-55.579 125.044-180.562v-217.658z" />
<glyph unicode="&#xe91a;" glyph-name="lock-gray" d="M366.616 700.84v-126.447c0-10.418 8.419-18.89 18.879-18.935h253.008c10.493 0.045 18.879 8.516 18.879 18.901v126.481c0 51.827-15.315 86.587-37.055 108.328s-56.501 37.055-108.328 37.055c-51.827 0-86.587-15.315-108.327-37.055s-37.055-56.501-37.055-108.328zM254.178 555.458c-0.883 6.184-1.34 12.506-1.34 18.935v126.447c0.001 74.622 22.596 140.998 70.381 188.781s114.158 70.38 188.78 70.38c74.622 0 140.998-22.596 188.781-70.38 47.786-47.784 70.383-114.158 70.383-188.781v-126.481c0-6.418-0.455-12.729-1.335-18.901h45.58c115.203 0 208.593-93.39 208.593-208.593v-202.272c0-115.203-93.388-208.593-208.593-208.593h-606.815c-115.202 0-208.593 93.388-208.593 208.593v202.272c0 115.202 93.39 208.593 208.593 208.593h45.587zM385.357 441.68h-176.766c-52.365 0-94.815-42.45-94.815-94.815v-202.272c0-52.368 42.45-94.815 94.815-94.815h606.815c52.368 0 94.815 42.447 94.815 94.815v202.272c0 52.364-42.447 94.815-94.815 94.815h-176.766c-0.075 0-0.148-0.001-0.222-0.001h-252.84c-0.074 0-0.147 0.001-0.222 0.001z" />
<glyph unicode="&#xe91b;" glyph-name="mail-gray" d="M132.74 886.857h758.52c73.311 0 132.74-63.479 132.74-141.785v-594.142c0-78.307-59.429-141.787-132.74-141.787h-758.52c-73.31 0-132.74 63.481-132.74 141.787v594.142c0 78.305 59.43 141.785 132.74 141.785zM113.778 696.775v-545.845c0-11.191 8.49-20.261 18.962-20.261h758.52c10.474 0 18.959 9.070 18.959 20.261v545.845l-317.586-259.408c-47.595-38.876-113.672-38.876-161.267 0l-317.588 259.408zM806.846 765.327h-589.692l283.326-231.423c6.799-5.553 16.239-5.554 23.039 0l283.327 231.423z" />
<glyph unicode="&#xe91c;" glyph-name="menu-white" d="M54.857 740.615c30.296 0 54.857 24.561 54.857 54.857s-24.561 54.857-54.857 54.857c-30.296 0-54.857-24.561-54.857-54.857s24.561-54.857 54.857-54.857zM969.143 740.615c30.296 0 54.857 24.561 54.857 54.857s-24.561 54.857-54.857 54.857h-694.854c-30.297 0-54.857-24.56-54.857-54.857s24.56-54.857 54.857-54.857h694.854zM969.143 393.142c30.296 0 54.857 24.561 54.857 54.857s-24.561 54.857-54.857 54.857h-694.857c-30.296 0-54.857-24.56-54.857-54.857s24.561-54.857 54.857-54.857h694.857zM1024 100.527c0-30.296-24.561-54.857-54.857-54.857h-694.857c-30.296 0-54.857 24.561-54.857 54.857s24.561 54.857 54.857 54.857h694.857c30.296 0 54.857-24.561 54.857-54.857zM109.714 429.758c0-30.296-24.561-54.857-54.857-54.857s-54.857 24.561-54.857 54.857c0 30.296 24.561 54.857 54.857 54.857s54.857-24.561 54.857-54.857zM54.857 45.758c30.296 0 54.857 24.561 54.857 54.857s-24.561 54.857-54.857 54.857c-30.296 0-54.857-24.561-54.857-54.857s24.561-54.857 54.857-54.857z" />
<glyph unicode="&#xe91d;" glyph-name="notif" d="M851.588 277.342h-679.12c12.183 79.71 41.083 229.922 98.764 359.692 60.329 135.729 140.963 225.443 245.869 225.443 104.672 0 183.631-89.481 241.74-225.437 55.549-129.966 81.939-280.324 92.749-359.698zM517.1 960c-170.421 0-274.649-144.853-336.411-283.805-63.708-143.331-94.128-305.83-106.443-387.364-8.994-59.542 38.554-109.011 96.373-109.011h682.666c57.050 0 104.652 48.312 96.694 107.504-10.908 81.168-38.623 243.912-100.039 387.604-59.523 139.268-161.766 285.072-332.839 285.072zM273.889 52.592c10.673 24.781 39.705 36.323 64.826 25.81l0.153-0.063 0.798-0.327c0.741-0.307 1.893-0.775 3.419-1.385 3.053-1.219 7.593-2.994 13.328-5.149 11.5-4.315 27.651-10.079 46.154-15.823 38.315-11.898 81.759-22.133 114.543-22.133s76.227 10.235 114.543 22.133c18.505 5.744 34.655 11.508 46.152 15.823 5.734 2.155 10.274 3.93 13.332 5.149 1.521 0.61 2.677 1.078 3.418 1.385l0.961 0.395c25.122 10.523 54.139-1.029 64.813-25.815 10.679-24.786-1.048-53.418-26.175-63.95 0.010 0 0.015 0.005-19.319 44.879l19.319-44.879-0.507-0.214-1.18-0.483c-1.004-0.414-2.433-0.99-4.247-1.716-3.623-1.448-8.811-3.477-15.253-5.895-12.854-4.827-30.876-11.254-51.628-17.701-40.198-12.483-95.621-26.634-144.229-26.634s-104.030 14.151-144.229 26.634c-20.755 6.446-38.773 12.873-51.63 17.701-6.443 2.419-11.628 4.447-15.254 5.895-1.814 0.727-3.242 1.302-4.244 1.716l-1.182 0.483-0.344 0.146-0.175 0.073 19.332 44.875c-19.332-44.875-19.338-44.875-19.332-44.875-25.127 10.533-36.84 39.16-26.164 63.945z" />
<glyph unicode="&#xe920;" glyph-name="search-black" d="M819.201 499.198c0 197.939-160.461 358.401-358.401 358.401s-358.401-160.461-358.401-358.401c0-197.939 160.461-358.401 358.401-358.401s358.401 160.461 358.401 358.401zM748.427 139.165c-78.833-63.058-178.826-100.767-287.626-100.767-254.493 0-460.801 206.305-460.801 460.801 0 254.493 206.307 460.801 460.801 460.801s460.801-206.307 460.801-460.801c0-108.8-37.709-208.794-100.767-287.626l188.17-188.17c19.994-19.994 19.994-52.413 0-72.407s-52.413-19.994-72.407 0l-188.17 188.17zM460.801 140.798c197.939 0 358.401 160.461 358.401 358.401s-160.461 358.401-358.401 358.401c-197.939 0-358.401-160.461-358.401-358.401s160.461-358.401 358.401-358.401z" />
<glyph unicode="&#xe921;" glyph-name="send-gray-arrow" d="M61.253 555.873l810.406 384.618c91.58 43.464 185.972-52.95 140.587-143.6l-396.989-792.902c-44.024-87.937-173.198-75.138-198.284 19.645l-66.848 252.573-274.241 81.228c-93.596 27.72-103.088 156.455-14.631 198.437zM778.517 778.53l-671.934-318.899 272.364-80.671 399.569 399.569zM453.392 303.039l66.615-251.695 319.161 637.469-385.775-385.774zM778.517 778.53l-671.934-318.899 272.364-80.671 399.569 399.569zM453.392 303.039l66.615-251.695 319.161 637.469-385.775-385.774z" />
<glyph unicode="&#xe922;" glyph-name="settings" d="M471.361 827.267c0 10.473 8.489 18.962 18.963 18.962h43.35c10.474 0 18.963-8.49 18.963-18.962v-20.627c0-42.112 23.791-80.61 61.459-99.443 42.803-21.402 94.5-13.013 128.342 20.826l16.218 16.219c7.407 7.405 19.413 7.405 26.814 0l22.767-22.767c7.407-7.406 7.407-19.411 0-26.817l-16.218-16.219c-33.841-33.839-42.227-85.536-20.826-128.339 18.832-37.669 57.329-61.459 99.444-61.459h20.626c10.474 0 18.963-8.489 18.963-18.963v-43.35c0-10.474-8.489-18.963-18.963-18.963h-20.626c-42.115 0-80.614-23.791-99.444-61.459-21.401-42.803-13.015-94.5 20.826-128.342l16.218-16.218c7.407-7.407 7.407-19.413 0-26.814l-22.767-22.767c-7.402-7.407-19.407-7.407-26.814 0l-16.218 16.218c-33.841 33.841-85.538 42.227-128.342 20.826-37.669-18.832-61.459-57.329-61.459-99.444v-20.626c0-10.474-8.489-18.963-18.963-18.963h-43.35c-10.474 0-18.963 8.489-18.963 18.963v20.626c0 42.115-23.791 80.614-61.459 99.444-42.803 21.401-94.5 13.015-128.339-20.826l-16.219-16.218c-7.405-7.407-19.411-7.407-26.817 0l-22.767 22.767c-7.406 7.402-7.406 19.407 0 26.814l16.219 16.218c33.839 33.841 42.229 85.538 20.826 128.342-18.833 37.669-57.331 61.459-99.444 61.459h-20.627c-10.473 0-18.962 8.489-18.962 18.963v43.35c0 10.474 8.49 18.963 18.962 18.963h20.627c42.112 0 80.61 23.791 99.443 61.459 21.402 42.803 13.013 94.5-20.826 128.339l-16.219 16.219c-7.405 7.405-7.405 19.411 0 26.817l22.767 22.767c7.406 7.406 19.411 7.406 26.817 0l16.219-16.219c33.839-33.839 85.536-42.229 128.339-20.826 37.669 18.833 61.459 57.331 61.459 99.444v20.627zM490.325 960.001c-73.308 0-132.736-59.427-132.736-132.735v-14.373l-11.797 11.797c-51.836 51.836-135.879 51.836-187.715 0l-22.767-22.767c-51.836-51.836-51.836-135.879 0-187.715l11.797-11.797h-14.373c-73.307 0-132.735-59.427-132.735-132.736v-43.35c0-73.308 59.427-132.735 132.735-132.735h14.373l-11.797-11.8c-51.836-51.834-51.836-135.875 0-187.714l22.767-22.767c51.836-51.834 135.879-51.834 187.715 0l11.797 11.8v-14.375c0-73.308 59.427-132.735 132.736-132.735h43.35c73.308 0 132.735 59.426 132.735 132.735v14.375l11.8-11.8c51.834-51.834 135.875-51.834 187.714 0l22.767 22.767c51.834 51.839 51.834 135.88 0 187.714l-11.8 11.8h14.375c73.308 0 132.735 59.426 132.735 132.735v43.35c0 73.308-59.426 132.736-132.735 132.736h-14.375l11.8 11.797c51.834 51.836 51.834 135.879 0 187.715l-22.767 22.767c-51.839 51.836-135.88 51.836-187.714 0l-11.8-11.797v14.373c0 73.307-59.426 132.735-132.735 132.735h-43.35zM438.852 448.021c0 40.39 32.744 73.128 73.128 73.128 40.39 0 73.128-32.738 73.128-73.128 0-40.385-32.738-73.128-73.128-73.128-40.385 0-73.128 32.744-73.128 73.128zM511.98 634.922c-103.222 0-186.899-83.678-186.899-186.9 0-103.219 83.678-186.899 186.899-186.899 103.224 0 186.899 83.68 186.899 186.899 0 103.223-83.675 186.9-186.899 186.9zM490.325 846.229h43.35c10.474 0 18.963-8.49 18.963-18.962v-20.627c0-42.112 23.791-80.61 61.459-99.443 42.803-21.402 94.5-13.013 128.342 20.826l16.218 16.219c7.407 7.405 19.413 7.405 26.814 0l22.767-22.767c7.407-7.406 7.407-19.411 0-26.817l-16.218-16.219c-33.841-33.839-42.227-85.536-20.826-128.339 18.832-37.669 57.329-61.459 99.444-61.459h20.626c10.474 0 18.963-8.489 18.963-18.963v-43.35c0-10.474-8.489-18.963-18.963-18.963h-20.626c-42.115 0-80.614-23.791-99.444-61.459-21.401-42.803-13.015-94.5 20.826-128.342l16.218-16.218c7.407-7.407 7.407-19.413 0-26.814l-22.767-22.767c-7.402-7.407-19.407-7.407-26.814 0l-16.218 16.218c-33.841 33.841-85.538 42.227-128.342 20.826-37.669-18.832-61.459-57.329-61.459-99.444v-20.626c0-10.474-8.489-18.963-18.963-18.963h-43.35c-10.474 0-18.963 8.489-18.963 18.963v20.626c0 42.115-23.791 80.614-61.459 99.444-42.803 21.401-94.5 13.015-128.339-20.826l-16.219-16.218c-7.405-7.407-19.411-7.407-26.817 0l-22.767 22.767c-7.406 7.402-7.406 19.407 0 26.814l16.219 16.218c33.839 33.841 42.229 85.538 20.826 128.342-18.833 37.669-57.331 61.459-99.444 61.459h-20.627c-10.473 0-18.962 8.489-18.962 18.963v43.35c0 10.474 8.49 18.963 18.962 18.963h20.627c42.112 0 80.61 23.791 99.443 61.459 21.402 42.803 13.013 94.5-20.826 128.339l-16.219 16.219c-7.405 7.405-7.405 19.411 0 26.817l22.767 22.767c7.406 7.406 19.411 7.406 26.817 0l16.219-16.219c33.839-33.839 85.536-42.229 128.339-20.826 37.669 18.833 61.459 57.331 61.459 99.444v20.627c0 10.473 8.489 18.962 18.963 18.962zM511.98 634.922c-103.222 0-186.899-83.678-186.899-186.9 0-103.219 83.678-186.899 186.899-186.899 103.224 0 186.899 83.68 186.899 186.899 0 103.223-83.675 186.9-186.899 186.9z" />
<glyph unicode="&#xe924;" glyph-name="star-purple" d="M376.396 857.886c42.683 136.153 228.527 136.152 271.205 0l50.561-161.279c2.724-8.699 10.544-14.588 19.369-14.588h163.611c138.123 0 195.553-183.191 83.813-267.339l-132.369-99.676c-7.137-5.38-10.123-14.907-7.397-23.608l50.561-161.277c42.679-136.155-107.669-249.372-219.415-165.224l-132.363 99.676c-7.137 5.375-16.807 5.375-23.943 0l-132.365-99.676c-111.744-84.148-262.092 29.069-219.411 165.224l50.559 161.277c2.727 8.701-0.26 18.227-7.399 23.608l-132.365 99.676c-111.743 84.148-54.315 267.339 83.807 267.339h163.612c8.824 0 16.644 5.889 19.372 14.588l50.559 161.28zM531.368 818.742c-6.095 19.451-32.644 19.451-38.739 0l-50.561-161.28c-19.088-60.889-73.833-102.115-135.603-102.115h-163.612c-19.732 0-27.936-26.171-11.973-38.192l132.365-99.679c49.973-37.628 70.884-104.336 51.796-165.224l-50.559-161.277c-6.097-19.449 15.381-35.629 31.344-23.608l132.365 99.676c49.972 37.633 117.643 37.633 167.613 0l132.363-99.676c15.968-12.021 37.441 4.159 31.347 23.608l-50.561 161.277c-19.084 60.888 1.824 127.596 51.796 165.224l132.369 99.679c15.961 12.021 7.757 38.192-11.977 38.192h-163.611c-61.769 0-116.512 41.225-135.603 102.115l-50.561 161.28zM492.63 818.742c6.095 19.451 32.644 19.451 38.739 0l50.561-161.28c19.089-60.889 73.833-102.115 135.603-102.115h163.611c19.735 0 27.94-26.171 11.977-38.192l-132.369-99.679c-49.971-37.628-70.88-104.336-51.796-165.224l50.561-161.277c6.095-19.449-15.379-35.629-31.347-23.608l-132.363 99.676c-49.971 37.633-117.643 37.633-167.613 0l-132.365-99.676c-15.963-12.021-37.441 4.159-31.344 23.608l50.559 161.277c19.088 60.888-1.823 127.596-51.796 165.224l-132.365 99.679c-15.963 12.020-7.76 38.192 11.973 38.192h163.612c61.771 0 116.515 41.225 135.603 102.115l50.561 161.28z" />
<glyph unicode="&#xe925;" glyph-name="suitcase-black" d="M728.614 143.804h-433.23c-8.157 0-14.769 7.428-14.769 16.593v486.714c0 9.164 6.612 16.593 14.769 16.593h433.23c8.158 0 14.771-7.429 14.771-16.593v-486.714c0-9.165-6.613-16.593-14.771-16.593zM433.229 542.025c-24.468 0-44.306-22.285-44.306-49.779v-176.986c0-27.49 19.837-49.779 44.306-49.779 24.474 0 44.309 22.289 44.309 49.779v176.986c0 27.494-19.836 49.779-44.309 49.779zM635.076 492.245c0 27.494-19.836 49.779-44.305 49.779-24.474 0-44.309-22.285-44.309-49.779v-176.986c0-27.49 19.836-49.779 44.309-49.779 24.469 0 44.305 22.289 44.305 49.779v176.986zM452.924 896h118.153c57.097 0 103.386-52.001 103.386-116.148 0-5.634-0.358-11.174-1.045-16.593h55.198c57.101 0 103.386-52.001 103.386-116.148v-486.714c0-64.149-46.285-116.151-103.386-116.151h-15.040c-2.449-24.887-21.231-44.245-44.036-44.245s-41.587 19.358-44.036 44.245h-227.003c-2.449-24.887-21.231-44.245-44.038-44.245s-41.588 19.358-44.037 44.245h-15.040c-57.098 0-103.385 52.002-103.385 116.151v486.714c0 64.147 46.287 116.148 103.385 116.148h55.201c-0.69 5.419-1.047 10.959-1.047 16.593 0 64.147 46.287 116.148 103.385 116.148zM669.538 143.804h59.076c8.158 0 14.771 7.428 14.771 16.593v486.714c0 9.164-6.613 16.593-14.771 16.593h-433.23c-8.157 0-14.769-7.429-14.769-16.593v-486.714c0-9.165 6.612-16.593 14.769-16.593h374.153zM571.076 763.259c8.158 0 14.771 7.429 14.771 16.593s-6.613 16.593-14.771 16.593h-118.153c-8.158 0-14.771-7.429-14.771-16.593s6.613-16.593 14.771-16.593h118.153z" />
<glyph unicode="&#xe926;" glyph-name="suitcase-white" d="M819.2 89.598h-614.4v614.4h614.4v-614.4zM409.6 550.399c-28.277 0-51.2-22.922-51.2-51.2v-204.8c0-28.278 22.924-51.2 51.2-51.2s51.2 22.922 51.2 51.2v204.8c0 28.278-22.922 51.2-51.2 51.2zM665.6 499.199c0 28.278-22.922 51.2-51.2 51.2s-51.2-22.922-51.2-51.2v-204.8c0-28.278 22.922-51.2 51.2-51.2s51.2 22.922 51.2 51.2v204.8zM409.6 960h204.8c56.556 0 102.4-45.846 102.4-102.4v-51.2h102.4c56.556 0 102.4-45.846 102.4-102.4v-614.4c0-56.556-45.845-102.4-102.4-102.4h-51.2c0-28.278-22.922-51.2-51.2-51.2s-51.2 22.922-51.2 51.2h-307.2c0-28.278-22.924-51.2-51.2-51.2s-51.2 22.922-51.2 51.2h-51.2c-56.554 0-102.4 45.845-102.4 102.4v614.4c0 56.554 45.846 102.4 102.4 102.4h102.4v51.2c0 56.554 45.846 102.4 102.4 102.4zM716.8 89.598h102.4v614.4h-614.4v-614.4h512.001zM614.4 806.4v51.2h-204.8v-51.2h204.8z" />
<glyph unicode="&#xe927;" glyph-name="support" d="M455.811 960c-136.492 0-251.985-89.924-290.461-213.761-10.016-4.822-20.345-10.921-30.109-17.336-20.269-13.315-42.424-30.851-59.655-48.36-48.499-49.281-75.586-115.93-75.586-185.239 0-69.305 27.087-135.958 75.586-185.236 8.893-9.035 29.693-25.083 49.705-38.118 10.607-6.91 22.903-14.239 35.254-20.056 10.402-4.896 28.417-12.488 48.048-12.488h56.888v416.483c0 105.118 85.215 190.332 190.33 190.332h56.188c136.148 0 246.521-110.37 246.521-246.519v-258.458c0-105.116-85.216-190.332-190.332-190.332h-9.85c-22.835 59.168-80.252 101.137-147.474 101.137-87.275 0-158.025-70.748-158.025-158.027 0-87.274 70.75-158.023 158.025-158.023 67.222 0 124.639 41.969 147.474 101.137h9.85c135.987 0 251.123 89.254 290.030 212.377 1.906 0.834 3.657 1.639 5.237 2.379 12.351 5.817 24.645 13.146 35.255 20.056 20.011 13.034 40.809 29.081 49.703 38.118 48.498 49.279 75.586 115.931 75.586 185.236 0 69.308-27.087 135.958-75.586 185.239-17.232 17.509-39.385 35.043-59.655 48.36-10.201 6.702-21.016 13.059-31.447 17.974-4.496 2.119-11.479 5.251-19.861 7.607-57.905 121.528-181.867 205.517-325.451 205.517h-56.188z" />
<glyph unicode="&#xe928;" glyph-name="upload" d="M0 196.851c0 35.84 28.606 64.896 63.894 64.896s63.894-29.056 63.894-64.896v-131.059h768.423v131.059c0 35.84 28.608 64.896 63.898 64.896 35.283 0 63.891-29.056 63.891-64.896v-131.059c0-71.68-57.21-129.792-127.789-129.792h-768.423c-70.575 0-127.788 58.112-127.788 129.792v131.059zM720.012 616.509l-146.503 148.801v-509.399c0-35.84-28.606-64.896-63.894-64.896s-63.894 29.056-63.894 64.896v509.399l-146.501-148.801c-24.952-25.343-65.407-25.343-90.359 0s-24.952 66.434 0 91.778l210.395 213.697c49.904 50.687 130.815 50.687 180.719 0l210.392-213.697c24.954-25.344 24.954-66.434 0-91.778-24.947-25.343-65.408-25.343-90.355 0z" />
<glyph unicode="&#xe929;" glyph-name="user-purple" d="M511.999 345.6c169.662 0 307.2 137.538 307.2 307.2s-137.538 307.2-307.2 307.2c-169.662 0-307.2-137.538-307.2-307.2s137.538-307.2 307.2-307.2zM716.799 652.8c0-113.106-91.694-204.8-204.8-204.8-113.108 0-204.8 91.694-204.8 204.8 0 113.108 91.692 204.8 204.8 204.8 113.106 0 204.8-91.692 204.8-204.8zM256 115.201c0 0.149 0.002 1.050 0.858 2.964 0.907 2.028 2.813 5.233 6.62 9.374 7.83 8.514 21.874 18.949 44.094 29.051 44.352 20.162 113.455 35.41 204.427 35.41s160.076-15.247 204.426-35.41c22.22-10.102 36.265-20.537 44.094-29.051 3.809-4.142 5.714-7.348 6.62-9.374 0.86-1.915 0.86-2.816 0.86-2.964v-127.974c0-28.278 22.922-51.226 51.2-51.226s51.2 22.922 51.2 51.2v128c0 64.087-54.83 108.805-111.595 134.61-61.235 27.838-145.73 44.59-246.804 44.59s-185.568-16.753-246.805-44.59c-56.767-25.805-111.595-70.523-111.595-134.61v-127.954c0-28.278 22.924-51.246 51.2-51.246s51.2 22.922 51.2 51.2v128zM256.856 118.165c-0.856-1.915-0.858-2.816-0.858-2.964v-128c0-28.278-22.924-51.2-51.2-51.2h614.4c-28.278 0-51.2 22.948-51.2 51.226v127.974c0 0.149 0 1.050-0.86 2.964-0.906 2.028-2.81 5.233-6.62 9.374-7.829 8.514-21.872 18.949-44.094 29.051-44.35 20.162-113.454 35.41-204.426 35.41s-160.075-15.247-204.427-35.41c-22.22-10.102-36.264-20.537-44.094-29.051-3.808-4.142-5.712-7.348-6.62-9.374zM511.999 448c113.106 0 204.8 91.694 204.8 204.8 0 113.108-91.694 204.8-204.8 204.8-113.108 0-204.8-91.692-204.8-204.8 0-113.106 91.692-204.8 204.8-204.8z" />
</font>
</defs>
</svg>
