<svg width="16" height="16" viewBox="0 0 16 16" fill="none" xmlns="http://www.w3.org/2000/svg">
<path fill-rule="evenodd" clip-rule="evenodd" d="M4.07714 12.8103C4.31929 13.1464 4.24318 13.6151 3.90712 13.8573C3.57107 14.0994 3.10233 14.0233 2.86018 13.6872L1.33021 11.564C0.889928 10.953 0.889929 10.1289 1.33021 9.51786L2.86018 7.39467C3.10234 7.05861 3.57107 6.98249 3.90712 7.22465C4.24318 7.46681 4.31929 7.93554 4.07714 8.2716L2.9823 9.79095L10.2536 9.79095C11.4962 9.79095 12.5036 8.78359 12.5036 7.54095V3.75C12.5036 3.33579 12.8393 3 13.2536 3C13.6678 3 14.0036 3.33579 14.0036 3.75V7.54095C14.0036 9.61202 12.3246 11.2909 10.2536 11.2909L2.9823 11.2909L4.07714 12.8103Z" fill="#7B61FF"/>
</svg>
