<svg width="12" height="13" viewBox="0 0 12 13" fill="none" xmlns="http://www.w3.org/2000/svg">
<path fill-rule="evenodd" clip-rule="evenodd" d="M4.10959 1.77273C4.10959 1.63286 4.21999 1.51948 4.35616 1.51948H7.64384C7.78002 1.51948 7.89041 1.63286 7.89041 1.77273V2.44805C7.89041 2.58791 7.78002 2.7013 7.64384 2.7013H4.35617C4.21999 2.7013 4.10959 2.58791 4.10959 2.44805V1.77273ZM2.64762 2.7013C2.6361 2.61859 2.63014 2.53403 2.63014 2.44805V1.77273C2.63014 0.793678 3.40291 0 4.35616 0H7.64384C8.59709 0 9.36986 0.793676 9.36986 1.77273V2.44805C9.36986 2.53403 9.3639 2.61859 9.35238 2.7013H9.94521H11.2603C11.6688 2.7013 12 3.04144 12 3.46104C12 3.88063 11.6688 4.22078 11.2603 4.22078H10.6849V11.2273C10.6849 12.2063 9.91216 13 8.9589 13H3.13252C2.1874 13 1.41804 12.2193 1.40662 11.2487L1.32395 4.22078H0.739726C0.331187 4.22078 0 3.88063 0 3.46104C0 3.04144 0.331187 2.7013 0.739726 2.7013H2.05479H2.64762ZM4.35617 4.22078H2.80351L2.88597 11.2303C2.8876 11.369 2.99751 11.4805 3.13252 11.4805H8.9589C9.09508 11.4805 9.20548 11.3671 9.20548 11.2273V4.22078H7.64384H4.35617ZM5.42466 5.48701C5.42466 5.06742 5.09347 4.72727 4.68493 4.72727C4.27639 4.72727 3.94521 5.06742 3.94521 5.48701V9.53895C3.94521 9.95855 4.27639 10.2987 4.68493 10.2987C5.09347 10.2987 5.42466 9.95855 5.42466 9.53895V5.48701ZM7.31507 4.72727C7.72361 4.72727 8.05479 5.06742 8.05479 5.48701V9.53895C8.05479 9.95855 7.72361 10.2987 7.31507 10.2987C6.90653 10.2987 6.57534 9.95855 6.57534 9.53895V5.48701C6.57534 5.06742 6.90653 4.72727 7.31507 4.72727Z" fill="white"/>
</svg>
