<svg width="456" height="470" viewBox="0 0 456 470" fill="none" xmlns="http://www.w3.org/2000/svg">
<g filter="url(#filter0_d_83_9775)">
<rect x="30" y="10" width="396" height="410" rx="24" fill="white"/>
<g clip-path="url(#clip0_83_9775)">
<path d="M228 279C294.274 279 348 225.274 348 159C348 92.7258 294.274 39 228 39C161.726 39 108 92.7258 108 159C108 225.274 161.726 279 228 279Z" fill="url(#paint0_linear_83_9775)"/>
<g filter="url(#filter1_d_83_9775)">
<rect x="167" y="73.5566" width="124.537" height="155.029" rx="16" fill="white"/>
</g>
<rect x="178" y="93.5566" width="50" height="9.8" rx="4.9" fill="#011625"/>
<rect x="178" y="121.356" width="100" height="9.8" rx="4.9" fill="#D5D5D5"/>
<rect x="178" y="149.156" width="100" height="9.8" rx="4.9" fill="#D5D5D5"/>
<rect x="178" y="176.957" width="100" height="9.8" rx="4.9" fill="#D5D5D5"/>
<rect x="178" y="204.757" width="100" height="9.8" rx="4.9" fill="#D5D5D5"/>
<g filter="url(#filter2_d_83_9775)">
<path d="M366.15 56.4238H306.069C303.27 56.4238 301 58.8123 301 61.7587V91.4778C301 94.4242 303.27 96.8127 306.069 96.8127H366.15C368.949 96.8127 371.219 94.4242 371.219 91.4778V61.7587C371.219 58.8123 368.949 56.4238 366.15 56.4238Z" fill="white"/>
</g>
<path d="M316 83C319.314 83 322 80.3137 322 77C322 73.6863 319.314 71 316 71C312.686 71 310 73.6863 310 77C310 80.3137 312.686 83 316 83Z" fill="#CCC6D9"/>
<rect x="330" y="71" width="32" height="12" rx="6" fill="#D5D5D5"/>
<path fill-rule="evenodd" clip-rule="evenodd" d="M263.109 235.563C275.989 235.563 287.959 231.667 297.905 224.99L338.604 263.841L353.364 246.716L314.091 209.226C321.345 199.018 325.609 186.539 325.609 173.063C325.609 138.546 297.627 110.563 263.109 110.563C228.592 110.563 200.609 138.546 200.609 173.063C200.609 207.581 228.592 235.563 263.109 235.563ZM316.418 173.064C316.418 202.287 292.728 225.977 263.505 225.977C234.282 225.977 210.592 202.287 210.592 173.064C210.592 143.84 234.282 120.15 263.505 120.15C292.728 120.15 316.418 143.84 316.418 173.064Z" fill="#CCC6D9"/>
<g filter="url(#filter3_b_83_9775)">
<path d="M263.5 227C293.6 227 318 202.823 318 173C318 143.177 293.6 119 263.5 119C233.4 119 209 143.177 209 173C209 202.823 233.4 227 263.5 227Z" fill="white" fill-opacity="0.3"/>
</g>
<path d="M272.923 173L286.112 159.862C287.348 158.562 288.025 156.835 287.999 155.047C287.974 153.259 287.248 151.552 285.976 150.287C284.704 149.023 282.986 148.301 281.187 148.276C279.388 148.251 277.65 148.923 276.342 150.151L263.124 163.289L249.935 150.151C249.3 149.484 248.537 148.95 247.691 148.58C246.845 148.211 245.933 148.014 245.009 148.001C244.085 147.988 243.168 148.159 242.312 148.504C241.456 148.85 240.678 149.362 240.024 150.012C239.371 150.661 238.855 151.434 238.508 152.285C238.16 153.136 237.988 154.048 238.001 154.967C238.014 155.885 238.212 156.791 238.584 157.632C238.955 158.473 239.493 159.231 240.165 159.862L253.376 173L240.165 186.138C239.493 186.769 238.955 187.527 238.584 188.368C238.212 189.209 238.014 190.115 238.001 191.033C237.988 191.952 238.16 192.863 238.508 193.715C238.855 194.566 239.371 195.339 240.024 195.988C240.678 196.637 241.456 197.15 242.312 197.496C243.168 197.841 244.085 198.012 245.009 197.999C245.933 197.986 246.845 197.789 247.691 197.42C248.537 197.05 249.3 196.516 249.935 195.849L263.153 182.711L276.372 195.849C277.692 197.004 279.405 197.616 281.164 197.559C282.922 197.503 284.592 196.782 285.834 195.544C287.076 194.305 287.796 192.643 287.848 190.896C287.9 189.148 287.279 187.446 286.112 186.138L272.923 173Z" fill="#FF4040"/>
<path d="M338.602 263.843L353.362 246.718L355.585 248.84C357.742 250.899 359.033 253.775 359.175 256.837C359.317 259.898 358.297 262.893 356.341 265.163C354.384 267.433 351.651 268.792 348.742 268.941C345.833 269.091 342.987 268.018 340.83 265.959L338.607 263.836L338.602 263.843Z" fill="#E1DCEB"/>
<path fill-rule="evenodd" clip-rule="evenodd" d="M134.314 101.172C134.296 99.7459 134.117 98.3076 133.759 96.8594C132.504 91.7773 126.906 88.5146 120.948 87.7475C114.993 86.9804 108.799 88.7261 106.412 93.1468C105.047 95.6743 104.859 97.8527 105.417 99.6893C105.972 101.516 107.29 103.031 109.079 104.211C114.067 107.498 122.803 108.169 126.789 106.795C128.632 106.158 130.433 105.391 132.186 104.513C131.184 110.259 127.448 115.703 122.462 120.608C111.626 131.269 94.8117 139.36 85.6546 142.335C85.1626 142.495 84.8895 143.041 85.0425 143.554C85.1955 144.068 85.7181 144.356 86.2101 144.196C95.5485 141.162 112.69 132.899 123.74 122.026C129.449 116.411 133.516 110.09 134.211 103.444C147.116 96.2423 157.713 83.1769 166.774 72.1817C167.111 71.776 167.066 71.1589 166.675 70.8073C166.284 70.4582 165.696 70.5024 165.359 70.9106C156.668 81.4558 146.581 94 134.314 101.172ZM132.438 102.217C132.509 100.614 132.358 98.9861 131.951 97.3437C130.866 92.9452 125.878 90.3439 120.72 89.6801C117.559 89.2744 114.308 89.6088 111.758 90.7988C110.155 91.5462 108.835 92.6305 108.039 94.1057C106.994 96.0407 106.768 97.6954 107.196 99.0993C107.625 100.513 108.689 101.649 110.075 102.561C114.621 105.558 122.575 106.195 126.203 104.944C128.342 104.206 130.419 103.286 132.438 102.217Z" fill="#011625"/>
<circle cx="363" cy="194" r="6" fill="#417BA4"/>
<path fill-rule="evenodd" clip-rule="evenodd" d="M136.384 235.394C137.455 234.993 138.582 234.459 139.451 233.686C140.483 232.769 140.902 231.587 141.184 230.343C141.546 228.744 141.691 227.042 142.129 225.441C142.292 224.846 142.605 224.621 142.739 224.522C143.078 224.27 143.421 224.202 143.743 224.228C144.125 224.257 144.65 224.409 144.995 225.083C145.045 225.18 145.109 225.327 145.152 225.528C145.183 225.676 145.203 226.137 145.237 226.328C145.32 226.797 145.389 227.266 145.454 227.737C145.672 229.306 145.797 230.639 146.483 232.081C147.414 234.038 148.347 235.235 149.612 235.766C150.835 236.279 152.298 236.182 154.167 235.78C154.345 235.735 154.521 235.696 154.695 235.664C155.519 235.513 156.307 236.082 156.469 236.946C156.63 237.809 156.107 238.65 155.29 238.84C155.12 238.88 154.952 238.917 154.785 238.952C152.26 239.61 149.336 241.958 147.637 244.014C147.113 244.648 146.347 246.421 145.565 247.551C144.987 248.386 144.339 248.935 143.794 249.13C143.429 249.261 143.121 249.24 142.867 249.174C142.498 249.079 142.192 248.868 141.957 248.533C141.829 248.35 141.71 248.104 141.653 247.791C141.626 247.64 141.623 247.257 141.624 247.083C141.464 246.506 141.269 245.943 141.127 245.36C140.788 243.971 140.123 243.092 139.333 241.93C138.593 240.843 137.8 240.159 136.636 239.614C136.485 239.575 135.263 239.26 134.832 239.08C134.202 238.815 133.901 238.371 133.792 238.132C133.607 237.727 133.588 237.373 133.625 237.077C133.68 236.641 133.866 236.268 134.195 235.967C134.4 235.78 134.705 235.598 135.114 235.509C135.429 235.44 136.267 235.4 136.384 235.394ZM143.55 233.13C143.607 233.263 143.667 233.396 143.731 233.531C145.095 236.397 146.62 237.998 148.473 238.774L148.536 238.799C147.296 239.768 146.173 240.851 145.315 241.889C144.962 242.317 144.494 243.205 143.989 244.115C143.53 242.545 142.779 241.435 141.835 240.045C141.114 238.985 140.358 238.187 139.43 237.537C140.15 237.148 140.838 236.692 141.437 236.16C142.433 235.273 143.093 234.246 143.55 233.13Z" fill="#417BA4"/>
</g>
<path d="M134.521 337L131.017 330.64H130.033V337H125.929V320.152H132.817C134.145 320.152 135.273 320.384 136.201 320.848C137.145 321.312 137.849 321.952 138.313 322.768C138.777 323.568 139.009 324.464 139.009 325.456C139.009 326.576 138.689 327.576 138.049 328.456C137.425 329.336 136.497 329.96 135.265 330.328L139.153 337H134.521ZM130.033 327.736H132.577C133.329 327.736 133.889 327.552 134.257 327.184C134.641 326.816 134.833 326.296 134.833 325.624C134.833 324.984 134.641 324.48 134.257 324.112C133.889 323.744 133.329 323.56 132.577 323.56H130.033V327.736ZM154.21 330.088C154.21 330.472 154.186 330.872 154.138 331.288H144.85C144.914 332.12 145.178 332.76 145.642 333.208C146.122 333.64 146.706 333.856 147.394 333.856C148.418 333.856 149.13 333.424 149.53 332.56H153.898C153.674 333.44 153.266 334.232 152.674 334.936C152.098 335.64 151.37 336.192 150.49 336.592C149.61 336.992 148.626 337.192 147.538 337.192C146.226 337.192 145.058 336.912 144.034 336.352C143.01 335.792 142.21 334.992 141.634 333.952C141.058 332.912 140.77 331.696 140.77 330.304C140.77 328.912 141.05 327.696 141.61 326.656C142.186 325.616 142.986 324.816 144.01 324.256C145.034 323.696 146.21 323.416 147.538 323.416C148.834 323.416 149.986 323.688 150.994 324.232C152.002 324.776 152.786 325.552 153.346 326.56C153.922 327.568 154.21 328.744 154.21 330.088ZM150.01 329.008C150.01 328.304 149.77 327.744 149.29 327.328C148.81 326.912 148.21 326.704 147.49 326.704C146.802 326.704 146.218 326.904 145.738 327.304C145.274 327.704 144.986 328.272 144.874 329.008H150.01ZM161.823 337.192C160.655 337.192 159.615 336.992 158.703 336.592C157.791 336.192 157.071 335.648 156.543 334.96C156.015 334.256 155.719 333.472 155.655 332.608H159.711C159.759 333.072 159.975 333.448 160.359 333.736C160.743 334.024 161.215 334.168 161.775 334.168C162.287 334.168 162.679 334.072 162.951 333.88C163.239 333.672 163.383 333.408 163.383 333.088C163.383 332.704 163.183 332.424 162.783 332.248C162.383 332.056 161.735 331.848 160.839 331.624C159.879 331.4 159.079 331.168 158.439 330.928C157.799 330.672 157.247 330.28 156.783 329.752C156.319 329.208 156.087 328.48 156.087 327.568C156.087 326.8 156.295 326.104 156.711 325.48C157.143 324.84 157.767 324.336 158.583 323.968C159.415 323.6 160.399 323.416 161.535 323.416C163.215 323.416 164.535 323.832 165.495 324.664C166.471 325.496 167.031 326.6 167.175 327.976H163.383C163.319 327.512 163.111 327.144 162.759 326.872C162.423 326.6 161.975 326.464 161.415 326.464C160.935 326.464 160.567 326.56 160.311 326.752C160.055 326.928 159.927 327.176 159.927 327.496C159.927 327.88 160.127 328.168 160.527 328.36C160.943 328.552 161.583 328.744 162.447 328.936C163.439 329.192 164.247 329.448 164.871 329.704C165.495 329.944 166.039 330.344 166.503 330.904C166.983 331.448 167.231 332.184 167.247 333.112C167.247 333.896 167.023 334.6 166.575 335.224C166.143 335.832 165.511 336.312 164.679 336.664C163.863 337.016 162.911 337.192 161.823 337.192ZM182.982 323.608V337H178.878V335.176C178.462 335.768 177.894 336.248 177.174 336.616C176.47 336.968 175.686 337.144 174.822 337.144C173.798 337.144 172.894 336.92 172.11 336.472C171.326 336.008 170.718 335.344 170.286 334.48C169.854 333.616 169.638 332.6 169.638 331.432V323.608H173.718V330.88C173.718 331.776 173.95 332.472 174.414 332.968C174.878 333.464 175.502 333.712 176.286 333.712C177.086 333.712 177.718 333.464 178.182 332.968C178.646 332.472 178.878 331.776 178.878 330.88V323.608H182.982ZM190.033 319.24V337H185.929V319.24H190.033ZM200.472 333.52V337H198.384C196.896 337 195.736 336.64 194.904 335.92C194.072 335.184 193.656 333.992 193.656 332.344V327.016H192.024V323.608H193.656V320.344H197.76V323.608H200.448V327.016H197.76V332.392C197.76 332.792 197.856 333.08 198.048 333.256C198.24 333.432 198.56 333.52 199.008 333.52H200.472ZM222.915 337H218.811L211.947 326.608V337H207.843V320.152H211.947L218.811 330.592V320.152H222.915V337ZM231.986 337.192C230.674 337.192 229.49 336.912 228.434 336.352C227.394 335.792 226.57 334.992 225.962 333.952C225.37 332.912 225.074 331.696 225.074 330.304C225.074 328.928 225.378 327.72 225.986 326.68C226.594 325.624 227.426 324.816 228.482 324.256C229.538 323.696 230.722 323.416 232.034 323.416C233.346 323.416 234.53 323.696 235.586 324.256C236.642 324.816 237.474 325.624 238.082 326.68C238.69 327.72 238.994 328.928 238.994 330.304C238.994 331.68 238.682 332.896 238.058 333.952C237.45 334.992 236.61 335.792 235.538 336.352C234.482 336.912 233.298 337.192 231.986 337.192ZM231.986 333.64C232.77 333.64 233.434 333.352 233.978 332.776C234.538 332.2 234.818 331.376 234.818 330.304C234.818 329.232 234.546 328.408 234.002 327.832C233.474 327.256 232.818 326.968 232.034 326.968C231.234 326.968 230.57 327.256 230.042 327.832C229.514 328.392 229.25 329.216 229.25 330.304C229.25 331.376 229.506 332.2 230.018 332.776C230.546 333.352 231.202 333.64 231.986 333.64ZM248.636 333.52V337H246.548C245.06 337 243.9 336.64 243.068 335.92C242.236 335.184 241.82 333.992 241.82 332.344V327.016H240.188V323.608H241.82V320.344H245.924V323.608H248.612V327.016H245.924V332.392C245.924 332.792 246.02 333.08 246.212 333.256C246.404 333.432 246.724 333.52 247.172 333.52H248.636ZM266.976 320.152V323.44H260.112V326.992H265.248V330.184H260.112V337H256.008V320.152H266.976ZM275.229 337.192C273.917 337.192 272.733 336.912 271.677 336.352C270.637 335.792 269.813 334.992 269.205 333.952C268.613 332.912 268.317 331.696 268.317 330.304C268.317 328.928 268.621 327.72 269.229 326.68C269.837 325.624 270.669 324.816 271.725 324.256C272.781 323.696 273.965 323.416 275.277 323.416C276.589 323.416 277.773 323.696 278.829 324.256C279.885 324.816 280.717 325.624 281.325 326.68C281.933 327.72 282.237 328.928 282.237 330.304C282.237 331.68 281.925 332.896 281.301 333.952C280.693 334.992 279.853 335.792 278.781 336.352C277.725 336.912 276.541 337.192 275.229 337.192ZM275.229 333.64C276.013 333.64 276.677 333.352 277.221 332.776C277.781 332.2 278.061 331.376 278.061 330.304C278.061 329.232 277.789 328.408 277.245 327.832C276.717 327.256 276.061 326.968 275.277 326.968C274.477 326.968 273.813 327.256 273.285 327.832C272.757 328.392 272.493 329.216 272.493 330.304C272.493 331.376 272.749 332.2 273.261 332.776C273.789 333.352 274.445 333.64 275.229 333.64ZM297.638 323.608V337H293.534V335.176C293.118 335.768 292.55 336.248 291.83 336.616C291.126 336.968 290.342 337.144 289.478 337.144C288.454 337.144 287.55 336.92 286.766 336.472C285.982 336.008 285.374 335.344 284.942 334.48C284.51 333.616 284.294 332.6 284.294 331.432V323.608H288.374V330.88C288.374 331.776 288.606 332.472 289.07 332.968C289.534 333.464 290.158 333.712 290.942 333.712C291.742 333.712 292.374 333.464 292.838 332.968C293.302 332.472 293.534 331.776 293.534 330.88V323.608H297.638ZM308.746 323.464C310.314 323.464 311.562 323.976 312.49 325C313.434 326.008 313.906 327.4 313.906 329.176V337H309.826V329.728C309.826 328.832 309.594 328.136 309.13 327.64C308.666 327.144 308.042 326.896 307.258 326.896C306.474 326.896 305.85 327.144 305.386 327.64C304.922 328.136 304.69 328.832 304.69 329.728V337H300.586V323.608H304.69V325.384C305.106 324.792 305.666 324.328 306.37 323.992C307.074 323.64 307.866 323.464 308.746 323.464ZM315.942 330.28C315.942 328.904 316.198 327.696 316.71 326.656C317.238 325.616 317.95 324.816 318.846 324.256C319.742 323.696 320.742 323.416 321.846 323.416C322.726 323.416 323.526 323.6 324.246 323.968C324.982 324.336 325.558 324.832 325.974 325.456V319.24H330.078V337H325.974V335.08C325.59 335.72 325.038 336.232 324.318 336.616C323.614 337 322.79 337.192 321.846 337.192C320.742 337.192 319.742 336.912 318.846 336.352C317.95 335.776 317.238 334.968 316.71 333.928C316.198 332.872 315.942 331.656 315.942 330.28ZM325.974 330.304C325.974 329.28 325.686 328.472 325.11 327.88C324.55 327.288 323.862 326.992 323.046 326.992C322.23 326.992 321.534 327.288 320.958 327.88C320.398 328.456 320.118 329.256 320.118 330.28C320.118 331.304 320.398 332.12 320.958 332.728C321.534 333.32 322.23 333.616 323.046 333.616C323.862 333.616 324.55 333.32 325.11 332.728C325.686 332.136 325.974 331.328 325.974 330.304Z" fill="#303030"/>
<path d="M112.953 361.88L109.657 373H107.593L105.257 364.584L102.777 373L100.729 373.016L97.5774 361.88H99.5134L101.817 370.936L104.313 361.88H106.361L108.681 370.888L111.001 361.88H112.953ZM119.018 364.04C119.69 364.04 120.287 364.184 120.81 364.472C121.343 364.76 121.759 365.187 122.058 365.752C122.367 366.317 122.522 367 122.522 367.8V373H120.714V368.072C120.714 367.283 120.516 366.68 120.122 366.264C119.727 365.837 119.188 365.624 118.506 365.624C117.823 365.624 117.279 365.837 116.874 366.264C116.479 366.68 116.282 367.283 116.282 368.072V373H114.458V361.16H116.282V365.208C116.591 364.835 116.98 364.547 117.45 364.344C117.93 364.141 118.452 364.04 119.018 364.04ZM128.672 373.144C127.84 373.144 127.088 372.957 126.416 372.584C125.744 372.2 125.216 371.667 124.832 370.984C124.448 370.291 124.256 369.491 124.256 368.584C124.256 367.688 124.454 366.893 124.848 366.2C125.243 365.507 125.782 364.973 126.464 364.6C127.147 364.227 127.91 364.04 128.752 364.04C129.595 364.04 130.358 364.227 131.04 364.6C131.723 364.973 132.262 365.507 132.656 366.2C133.051 366.893 133.248 367.688 133.248 368.584C133.248 369.48 133.046 370.275 132.64 370.968C132.235 371.661 131.68 372.2 130.976 372.584C130.283 372.957 129.515 373.144 128.672 373.144ZM128.672 371.56C129.142 371.56 129.579 371.448 129.984 371.224C130.4 371 130.736 370.664 130.992 370.216C131.248 369.768 131.376 369.224 131.376 368.584C131.376 367.944 131.254 367.405 131.008 366.968C130.763 366.52 130.438 366.184 130.032 365.96C129.627 365.736 129.19 365.624 128.72 365.624C128.251 365.624 127.814 365.736 127.408 365.96C127.014 366.184 126.699 366.52 126.464 366.968C126.23 367.405 126.112 367.944 126.112 368.584C126.112 369.533 126.352 370.269 126.832 370.792C127.323 371.304 127.936 371.56 128.672 371.56ZM138.876 373.144C138.044 373.144 137.292 372.957 136.62 372.584C135.948 372.2 135.42 371.667 135.036 370.984C134.652 370.291 134.46 369.491 134.46 368.584C134.46 367.688 134.657 366.893 135.052 366.2C135.446 365.507 135.985 364.973 136.668 364.6C137.35 364.227 138.113 364.04 138.956 364.04C139.798 364.04 140.561 364.227 141.244 364.6C141.926 364.973 142.465 365.507 142.86 366.2C143.254 366.893 143.452 367.688 143.452 368.584C143.452 369.48 143.249 370.275 142.844 370.968C142.438 371.661 141.884 372.2 141.18 372.584C140.486 372.957 139.718 373.144 138.876 373.144ZM138.876 371.56C139.345 371.56 139.782 371.448 140.188 371.224C140.604 371 140.94 370.664 141.196 370.216C141.452 369.768 141.58 369.224 141.58 368.584C141.58 367.944 141.457 367.405 141.212 366.968C140.966 366.52 140.641 366.184 140.236 365.96C139.83 365.736 139.393 365.624 138.924 365.624C138.454 365.624 138.017 365.736 137.612 365.96C137.217 366.184 136.902 366.52 136.668 366.968C136.433 367.405 136.316 367.944 136.316 368.584C136.316 369.533 136.556 370.269 137.036 370.792C137.526 371.304 138.14 371.56 138.876 371.56ZM147.079 365.48C147.388 365.075 147.809 364.733 148.343 364.456C148.876 364.179 149.479 364.04 150.151 364.04C150.919 364.04 151.617 364.232 152.247 364.616C152.887 364.989 153.388 365.517 153.751 366.2C154.113 366.883 154.295 367.667 154.295 368.552C154.295 369.437 154.113 370.232 153.751 370.936C153.388 371.629 152.887 372.173 152.247 372.568C151.617 372.952 150.919 373.144 150.151 373.144C149.479 373.144 148.881 373.011 148.359 372.744C147.836 372.467 147.409 372.125 147.079 371.72V377.192H145.255V364.184H147.079V365.48ZM152.439 368.552C152.439 367.944 152.311 367.421 152.055 366.984C151.809 366.536 151.479 366.2 151.063 365.976C150.657 365.741 150.22 365.624 149.751 365.624C149.292 365.624 148.855 365.741 148.439 365.976C148.033 366.211 147.703 366.552 147.447 367C147.201 367.448 147.079 367.976 147.079 368.584C147.079 369.192 147.201 369.725 147.447 370.184C147.703 370.632 148.033 370.973 148.439 371.208C148.855 371.443 149.292 371.56 149.751 371.56C150.22 371.56 150.657 371.443 151.063 371.208C151.479 370.963 151.809 370.611 152.055 370.152C152.311 369.693 152.439 369.16 152.439 368.552ZM159.298 373.144C158.605 373.144 157.981 373.021 157.426 372.776C156.882 372.52 156.45 372.179 156.13 371.752C155.81 371.315 155.64 370.829 155.618 370.296H157.506C157.538 370.669 157.714 370.984 158.034 371.24C158.365 371.485 158.776 371.608 159.266 371.608C159.778 371.608 160.173 371.512 160.45 371.32C160.738 371.117 160.882 370.861 160.882 370.552C160.882 370.221 160.722 369.976 160.402 369.816C160.093 369.656 159.597 369.48 158.914 369.288C158.253 369.107 157.714 368.931 157.298 368.76C156.882 368.589 156.52 368.328 156.21 367.976C155.912 367.624 155.762 367.16 155.762 366.584C155.762 366.115 155.901 365.688 156.178 365.304C156.456 364.909 156.85 364.6 157.362 364.376C157.885 364.152 158.482 364.04 159.154 364.04C160.157 364.04 160.962 364.296 161.57 364.808C162.189 365.309 162.52 365.997 162.562 366.872H160.738C160.706 366.477 160.546 366.163 160.258 365.928C159.97 365.693 159.581 365.576 159.09 365.576C158.61 365.576 158.242 365.667 157.986 365.848C157.73 366.029 157.602 366.269 157.602 366.568C157.602 366.803 157.688 367 157.858 367.16C158.029 367.32 158.237 367.448 158.482 367.544C158.728 367.629 159.09 367.741 159.57 367.88C160.21 368.051 160.733 368.227 161.138 368.408C161.554 368.579 161.912 368.835 162.21 369.176C162.509 369.517 162.664 369.971 162.674 370.536C162.674 371.037 162.536 371.485 162.258 371.88C161.981 372.275 161.586 372.584 161.074 372.808C160.573 373.032 159.981 373.144 159.298 373.144ZM169.538 373.112C169.207 373.112 168.93 373 168.706 372.776C168.482 372.552 168.37 372.275 168.37 371.944C168.37 371.613 168.482 371.336 168.706 371.112C168.93 370.888 169.207 370.776 169.538 370.776C169.858 370.776 170.13 370.888 170.354 371.112C170.578 371.336 170.69 371.613 170.69 371.944C170.69 372.275 170.578 372.552 170.354 372.776C170.13 373 169.858 373.112 169.538 373.112ZM173.397 373.112C173.066 373.112 172.789 373 172.565 372.776C172.341 372.552 172.229 372.275 172.229 371.944C172.229 371.613 172.341 371.336 172.565 371.112C172.789 370.888 173.066 370.776 173.397 370.776C173.717 370.776 173.989 370.888 174.213 371.112C174.437 371.336 174.549 371.613 174.549 371.944C174.549 372.275 174.437 372.552 174.213 372.776C173.989 373 173.717 373.112 173.397 373.112ZM177.256 373.112C176.926 373.112 176.648 373 176.424 372.776C176.2 372.552 176.088 372.275 176.088 371.944C176.088 371.613 176.2 371.336 176.424 371.112C176.648 370.888 176.926 370.776 177.256 370.776C177.576 370.776 177.848 370.888 178.072 371.112C178.296 371.336 178.408 371.613 178.408 371.944C178.408 372.275 178.296 372.552 178.072 372.776C177.848 373 177.576 373.112 177.256 373.112ZM186.664 365.672V370.552C186.664 370.883 186.739 371.123 186.888 371.272C187.048 371.411 187.315 371.48 187.688 371.48H188.808V373H187.368C186.547 373 185.917 372.808 185.48 372.424C185.043 372.04 184.824 371.416 184.824 370.552V365.672H183.784V364.184H184.824V361.992H186.664V364.184H188.808V365.672H186.664ZM195.049 364.04C195.721 364.04 196.318 364.184 196.841 364.472C197.374 364.76 197.79 365.187 198.089 365.752C198.398 366.317 198.553 367 198.553 367.8V373H196.745V368.072C196.745 367.283 196.548 366.68 196.153 366.264C195.758 365.837 195.22 365.624 194.537 365.624C193.854 365.624 193.31 365.837 192.905 366.264C192.51 366.68 192.313 367.283 192.313 368.072V373H190.489V361.16H192.313V365.208C192.622 364.835 193.012 364.547 193.481 364.344C193.961 364.141 194.484 364.04 195.049 364.04ZM201.808 363.016C201.477 363.016 201.2 362.904 200.976 362.68C200.752 362.456 200.64 362.179 200.64 361.848C200.64 361.517 200.752 361.24 200.976 361.016C201.2 360.792 201.477 360.68 201.808 360.68C202.128 360.68 202.4 360.792 202.624 361.016C202.848 361.24 202.96 361.517 202.96 361.848C202.96 362.179 202.848 362.456 202.624 362.68C202.4 362.904 202.128 363.016 201.808 363.016ZM202.704 364.184V373H200.88V364.184H202.704ZM208.298 373.144C207.605 373.144 206.981 373.021 206.426 372.776C205.882 372.52 205.45 372.179 205.13 371.752C204.81 371.315 204.64 370.829 204.618 370.296H206.506C206.538 370.669 206.714 370.984 207.034 371.24C207.365 371.485 207.776 371.608 208.266 371.608C208.778 371.608 209.173 371.512 209.45 371.32C209.738 371.117 209.882 370.861 209.882 370.552C209.882 370.221 209.722 369.976 209.402 369.816C209.093 369.656 208.597 369.48 207.914 369.288C207.253 369.107 206.714 368.931 206.298 368.76C205.882 368.589 205.52 368.328 205.21 367.976C204.912 367.624 204.762 367.16 204.762 366.584C204.762 366.115 204.901 365.688 205.178 365.304C205.456 364.909 205.85 364.6 206.362 364.376C206.885 364.152 207.482 364.04 208.154 364.04C209.157 364.04 209.962 364.296 210.57 364.808C211.189 365.309 211.52 365.997 211.562 366.872H209.738C209.706 366.477 209.546 366.163 209.258 365.928C208.97 365.693 208.581 365.576 208.09 365.576C207.61 365.576 207.242 365.667 206.986 365.848C206.73 366.029 206.602 366.269 206.602 366.568C206.602 366.803 206.688 367 206.858 367.16C207.029 367.32 207.237 367.448 207.482 367.544C207.728 367.629 208.09 367.741 208.57 367.88C209.21 368.051 209.733 368.227 210.138 368.408C210.554 368.579 210.912 368.835 211.21 369.176C211.509 369.517 211.664 369.971 211.674 370.536C211.674 371.037 211.536 371.485 211.258 371.88C210.981 372.275 210.586 372.584 210.074 372.808C209.573 373.032 208.981 373.144 208.298 373.144ZM218.73 363.016C218.399 363.016 218.122 362.904 217.898 362.68C217.674 362.456 217.562 362.179 217.562 361.848C217.562 361.517 217.674 361.24 217.898 361.016C218.122 360.792 218.399 360.68 218.73 360.68C219.05 360.68 219.322 360.792 219.546 361.016C219.77 361.24 219.882 361.517 219.882 361.848C219.882 362.179 219.77 362.456 219.546 362.68C219.322 362.904 219.05 363.016 218.73 363.016ZM219.626 364.184V373H217.802V364.184H219.626ZM226.468 364.04C227.162 364.04 227.78 364.184 228.324 364.472C228.879 364.76 229.311 365.187 229.62 365.752C229.93 366.317 230.084 367 230.084 367.8V373H228.276V368.072C228.276 367.283 228.079 366.68 227.684 366.264C227.29 365.837 226.751 365.624 226.068 365.624C225.386 365.624 224.842 365.837 224.436 366.264C224.042 366.68 223.844 367.283 223.844 368.072V373H222.02V364.184H223.844V365.192C224.143 364.829 224.522 364.547 224.98 364.344C225.45 364.141 225.946 364.04 226.468 364.04ZM236.107 365.672H234.475V373H232.635V365.672H231.595V364.184H232.635V363.56C232.635 362.547 232.902 361.811 233.435 361.352C233.979 360.883 234.827 360.648 235.979 360.648V362.168C235.424 362.168 235.035 362.275 234.811 362.488C234.587 362.691 234.475 363.048 234.475 363.56V364.184H236.107V365.672ZM241.547 373.144C240.715 373.144 239.963 372.957 239.291 372.584C238.619 372.2 238.091 371.667 237.707 370.984C237.323 370.291 237.131 369.491 237.131 368.584C237.131 367.688 237.329 366.893 237.723 366.2C238.118 365.507 238.657 364.973 239.339 364.6C240.022 364.227 240.785 364.04 241.627 364.04C242.47 364.04 243.233 364.227 243.915 364.6C244.598 364.973 245.137 365.507 245.531 366.2C245.926 366.893 246.123 367.688 246.123 368.584C246.123 369.48 245.921 370.275 245.515 370.968C245.11 371.661 244.555 372.2 243.851 372.584C243.158 372.957 242.39 373.144 241.547 373.144ZM241.547 371.56C242.017 371.56 242.454 371.448 242.859 371.224C243.275 371 243.611 370.664 243.867 370.216C244.123 369.768 244.251 369.224 244.251 368.584C244.251 367.944 244.129 367.405 243.883 366.968C243.638 366.52 243.313 366.184 242.907 365.96C242.502 365.736 242.065 365.624 241.595 365.624C241.126 365.624 240.689 365.736 240.283 365.96C239.889 366.184 239.574 366.52 239.339 366.968C239.105 367.405 238.987 367.944 238.987 368.584C238.987 369.533 239.227 370.269 239.707 370.792C240.198 371.304 240.811 371.56 241.547 371.56ZM249.751 365.464C250.017 365.016 250.369 364.669 250.807 364.424C251.255 364.168 251.783 364.04 252.391 364.04V365.928H251.927C251.212 365.928 250.668 366.109 250.295 366.472C249.932 366.835 249.751 367.464 249.751 368.36V373H247.927V364.184H249.751V365.464ZM264.739 364.04C265.433 364.04 266.051 364.184 266.595 364.472C267.15 364.76 267.582 365.187 267.891 365.752C268.211 366.317 268.371 367 268.371 367.8V373H266.563V368.072C266.563 367.283 266.366 366.68 265.971 366.264C265.577 365.837 265.038 365.624 264.355 365.624C263.673 365.624 263.129 365.837 262.723 366.264C262.329 366.68 262.131 367.283 262.131 368.072V373H260.323V368.072C260.323 367.283 260.126 366.68 259.731 366.264C259.337 365.837 258.798 365.624 258.115 365.624C257.433 365.624 256.889 365.837 256.483 366.264C256.089 366.68 255.891 367.283 255.891 368.072V373H254.067V364.184H255.891V365.192C256.19 364.829 256.569 364.547 257.027 364.344C257.486 364.141 257.977 364.04 258.499 364.04C259.203 364.04 259.833 364.189 260.387 364.488C260.942 364.787 261.369 365.219 261.667 365.784C261.934 365.251 262.35 364.829 262.915 364.52C263.481 364.2 264.089 364.04 264.739 364.04ZM270.084 368.552C270.084 367.667 270.266 366.883 270.628 366.2C271.002 365.517 271.503 364.989 272.132 364.616C272.772 364.232 273.476 364.04 274.244 364.04C274.938 364.04 275.54 364.179 276.052 364.456C276.575 364.723 276.991 365.059 277.3 365.464V364.184H279.14V373H277.3V371.688C276.991 372.104 276.57 372.451 276.036 372.728C275.503 373.005 274.895 373.144 274.212 373.144C273.455 373.144 272.762 372.952 272.132 372.568C271.503 372.173 271.002 371.629 270.628 370.936C270.266 370.232 270.084 369.437 270.084 368.552ZM277.3 368.584C277.3 367.976 277.172 367.448 276.916 367C276.671 366.552 276.346 366.211 275.94 365.976C275.535 365.741 275.098 365.624 274.628 365.624C274.159 365.624 273.722 365.741 273.316 365.976C272.911 366.2 272.58 366.536 272.324 366.984C272.079 367.421 271.956 367.944 271.956 368.552C271.956 369.16 272.079 369.693 272.324 370.152C272.58 370.611 272.911 370.963 273.316 371.208C273.732 371.443 274.17 371.56 274.628 371.56C275.098 371.56 275.535 371.443 275.94 371.208C276.346 370.973 276.671 370.632 276.916 370.184C277.172 369.725 277.3 369.192 277.3 368.584ZM283.664 365.672V370.552C283.664 370.883 283.739 371.123 283.888 371.272C284.048 371.411 284.315 371.48 284.688 371.48H285.808V373H284.368C283.547 373 282.917 372.808 282.48 372.424C282.043 372.04 281.824 371.416 281.824 370.552V365.672H280.784V364.184H281.824V361.992H283.664V364.184H285.808V365.672H283.664ZM288.417 363.016C288.086 363.016 287.809 362.904 287.585 362.68C287.361 362.456 287.249 362.179 287.249 361.848C287.249 361.517 287.361 361.24 287.585 361.016C287.809 360.792 288.086 360.68 288.417 360.68C288.737 360.68 289.009 360.792 289.233 361.016C289.457 361.24 289.569 361.517 289.569 361.848C289.569 362.179 289.457 362.456 289.233 362.68C289.009 362.904 288.737 363.016 288.417 363.016ZM289.313 364.184V373H287.489V364.184H289.313ZM295.532 373.144C294.7 373.144 293.948 372.957 293.276 372.584C292.604 372.2 292.076 371.667 291.692 370.984C291.308 370.291 291.116 369.491 291.116 368.584C291.116 367.688 291.313 366.893 291.708 366.2C292.102 365.507 292.641 364.973 293.324 364.6C294.006 364.227 294.769 364.04 295.612 364.04C296.454 364.04 297.217 364.227 297.9 364.6C298.582 364.973 299.121 365.507 299.516 366.2C299.91 366.893 300.108 367.688 300.108 368.584C300.108 369.48 299.905 370.275 299.5 370.968C299.094 371.661 298.54 372.2 297.836 372.584C297.142 372.957 296.374 373.144 295.532 373.144ZM295.532 371.56C296.001 371.56 296.438 371.448 296.844 371.224C297.26 371 297.596 370.664 297.852 370.216C298.108 369.768 298.236 369.224 298.236 368.584C298.236 367.944 298.113 367.405 297.868 366.968C297.622 366.52 297.297 366.184 296.892 365.96C296.486 365.736 296.049 365.624 295.58 365.624C295.11 365.624 294.673 365.736 294.268 365.96C293.873 366.184 293.558 366.52 293.324 366.968C293.089 367.405 292.972 367.944 292.972 368.584C292.972 369.533 293.212 370.269 293.692 370.792C294.182 371.304 294.796 371.56 295.532 371.56ZM306.359 364.04C307.052 364.04 307.671 364.184 308.215 364.472C308.77 364.76 309.202 365.187 309.511 365.752C309.82 366.317 309.975 367 309.975 367.8V373H308.167V368.072C308.167 367.283 307.97 366.68 307.575 366.264C307.18 365.837 306.642 365.624 305.959 365.624C305.276 365.624 304.732 365.837 304.327 366.264C303.932 366.68 303.735 367.283 303.735 368.072V373H301.911V364.184H303.735V365.192C304.034 364.829 304.412 364.547 304.871 364.344C305.34 364.141 305.836 364.04 306.359 364.04ZM317.386 363.016C317.055 363.016 316.778 362.904 316.554 362.68C316.33 362.456 316.218 362.179 316.218 361.848C316.218 361.517 316.33 361.24 316.554 361.016C316.778 360.792 317.055 360.68 317.386 360.68C317.706 360.68 317.978 360.792 318.202 361.016C318.426 361.24 318.538 361.517 318.538 361.848C318.538 362.179 318.426 362.456 318.202 362.68C317.978 362.904 317.706 363.016 317.386 363.016ZM318.282 364.184V373H316.458V364.184H318.282ZM323.877 373.144C323.183 373.144 322.559 373.021 322.005 372.776C321.461 372.52 321.029 372.179 320.709 371.752C320.389 371.315 320.218 370.829 320.197 370.296H322.085C322.117 370.669 322.293 370.984 322.613 371.24C322.943 371.485 323.354 371.608 323.845 371.608C324.357 371.608 324.751 371.512 325.029 371.32C325.317 371.117 325.461 370.861 325.461 370.552C325.461 370.221 325.301 369.976 324.981 369.816C324.671 369.656 324.175 369.48 323.493 369.288C322.831 369.107 322.293 368.931 321.877 368.76C321.461 368.589 321.098 368.328 320.789 367.976C320.49 367.624 320.341 367.16 320.341 366.584C320.341 366.115 320.479 365.688 320.757 365.304C321.034 364.909 321.429 364.6 321.941 364.376C322.463 364.152 323.061 364.04 323.733 364.04C324.735 364.04 325.541 364.296 326.149 364.808C326.767 365.309 327.098 365.997 327.141 366.872H325.317C325.285 366.477 325.125 366.163 324.837 365.928C324.549 365.693 324.159 365.576 323.669 365.576C323.189 365.576 322.821 365.667 322.565 365.848C322.309 366.029 322.181 366.269 322.181 366.568C322.181 366.803 322.266 367 322.437 367.16C322.607 367.32 322.815 367.448 323.061 367.544C323.306 367.629 323.669 367.741 324.149 367.88C324.789 368.051 325.311 368.227 325.717 368.408C326.133 368.579 326.49 368.835 326.789 369.176C327.087 369.517 327.242 369.971 327.253 370.536C327.253 371.037 327.114 371.485 326.837 371.88C326.559 372.275 326.165 372.584 325.653 372.808C325.151 373.032 324.559 373.144 323.877 373.144ZM337.828 364.04C338.521 364.04 339.14 364.184 339.684 364.472C340.238 364.76 340.67 365.187 340.98 365.752C341.289 366.317 341.444 367 341.444 367.8V373H339.636V368.072C339.636 367.283 339.438 366.68 339.044 366.264C338.649 365.837 338.11 365.624 337.428 365.624C336.745 365.624 336.201 365.837 335.796 366.264C335.401 366.68 335.204 367.283 335.204 368.072V373H333.38V364.184H335.204V365.192C335.502 364.829 335.881 364.547 336.34 364.344C336.809 364.141 337.305 364.04 337.828 364.04ZM347.594 373.144C346.762 373.144 346.01 372.957 345.338 372.584C344.666 372.2 344.138 371.667 343.754 370.984C343.37 370.291 343.178 369.491 343.178 368.584C343.178 367.688 343.376 366.893 343.77 366.2C344.165 365.507 344.704 364.973 345.386 364.6C346.069 364.227 346.832 364.04 347.674 364.04C348.517 364.04 349.28 364.227 349.962 364.6C350.645 364.973 351.184 365.507 351.578 366.2C351.973 366.893 352.17 367.688 352.17 368.584C352.17 369.48 351.968 370.275 351.562 370.968C351.157 371.661 350.602 372.2 349.898 372.584C349.205 372.957 348.437 373.144 347.594 373.144ZM347.594 371.56C348.064 371.56 348.501 371.448 348.906 371.224C349.322 371 349.658 370.664 349.914 370.216C350.17 369.768 350.298 369.224 350.298 368.584C350.298 367.944 350.176 367.405 349.93 366.968C349.685 366.52 349.36 366.184 348.954 365.96C348.549 365.736 348.112 365.624 347.642 365.624C347.173 365.624 346.736 365.736 346.33 365.96C345.936 366.184 345.621 366.52 345.386 366.968C345.152 367.405 345.034 367.944 345.034 368.584C345.034 369.533 345.274 370.269 345.754 370.792C346.245 371.304 346.858 371.56 347.594 371.56ZM356.101 365.672V370.552C356.101 370.883 356.176 371.123 356.325 371.272C356.485 371.411 356.752 371.48 357.125 371.48H358.245V373H356.805C355.984 373 355.355 372.808 354.917 372.424C354.48 372.04 354.261 371.416 354.261 370.552V365.672H353.221V364.184H354.261V361.992H356.101V364.184H358.245V365.672H356.101ZM133.709 392.552C133.709 391.667 133.891 390.883 134.253 390.2C134.627 389.517 135.128 388.989 135.757 388.616C136.397 388.232 137.101 388.04 137.869 388.04C138.563 388.04 139.165 388.179 139.677 388.456C140.2 388.723 140.616 389.059 140.925 389.464V388.184H142.765V397H140.925V395.688C140.616 396.104 140.195 396.451 139.661 396.728C139.128 397.005 138.52 397.144 137.837 397.144C137.08 397.144 136.387 396.952 135.757 396.568C135.128 396.173 134.627 395.629 134.253 394.936C133.891 394.232 133.709 393.437 133.709 392.552ZM140.925 392.584C140.925 391.976 140.797 391.448 140.541 391C140.296 390.552 139.971 390.211 139.565 389.976C139.16 389.741 138.723 389.624 138.253 389.624C137.784 389.624 137.347 389.741 136.941 389.976C136.536 390.2 136.205 390.536 135.949 390.984C135.704 391.421 135.581 391.944 135.581 392.552C135.581 393.16 135.704 393.693 135.949 394.152C136.205 394.611 136.536 394.963 136.941 395.208C137.357 395.443 137.795 395.56 138.253 395.56C138.723 395.56 139.16 395.443 139.565 395.208C139.971 394.973 140.296 394.632 140.541 394.184C140.797 393.725 140.925 393.192 140.925 392.584ZM148.569 395.368L151.065 388.184H153.001L149.641 397H147.465L144.121 388.184H146.073L148.569 395.368ZM153.772 392.552C153.772 391.667 153.953 390.883 154.316 390.2C154.689 389.517 155.19 388.989 155.82 388.616C156.46 388.232 157.164 388.04 157.932 388.04C158.625 388.04 159.228 388.179 159.74 388.456C160.262 388.723 160.678 389.059 160.988 389.464V388.184H162.828V397H160.988V395.688C160.678 396.104 160.257 396.451 159.724 396.728C159.19 397.005 158.582 397.144 157.9 397.144C157.142 397.144 156.449 396.952 155.82 396.568C155.19 396.173 154.689 395.629 154.316 394.936C153.953 394.232 153.772 393.437 153.772 392.552ZM160.988 392.584C160.988 391.976 160.86 391.448 160.604 391C160.358 390.552 160.033 390.211 159.628 389.976C159.222 389.741 158.785 389.624 158.316 389.624C157.846 389.624 157.409 389.741 157.004 389.976C156.598 390.2 156.268 390.536 156.012 390.984C155.766 391.421 155.644 391.944 155.644 392.552C155.644 393.16 155.766 393.693 156.012 394.152C156.268 394.611 156.598 394.963 157.004 395.208C157.42 395.443 157.857 395.56 158.316 395.56C158.785 395.56 159.222 395.443 159.628 395.208C160.033 394.973 160.358 394.632 160.604 394.184C160.86 393.725 160.988 393.192 160.988 392.584ZM166.151 387.016C165.821 387.016 165.543 386.904 165.319 386.68C165.095 386.456 164.983 386.179 164.983 385.848C164.983 385.517 165.095 385.24 165.319 385.016C165.543 384.792 165.821 384.68 166.151 384.68C166.471 384.68 166.743 384.792 166.967 385.016C167.191 385.24 167.303 385.517 167.303 385.848C167.303 386.179 167.191 386.456 166.967 386.68C166.743 386.904 166.471 387.016 166.151 387.016ZM167.047 388.184V397H165.223V388.184H167.047ZM171.266 385.16V397H169.442V385.16H171.266ZM173.053 392.552C173.053 391.667 173.234 390.883 173.597 390.2C173.97 389.517 174.472 388.989 175.101 388.616C175.741 388.232 176.445 388.04 177.213 388.04C177.906 388.04 178.509 388.179 179.021 388.456C179.544 388.723 179.96 389.059 180.269 389.464V388.184H182.109V397H180.269V395.688C179.96 396.104 179.538 396.451 179.005 396.728C178.472 397.005 177.864 397.144 177.181 397.144C176.424 397.144 175.73 396.952 175.101 396.568C174.472 396.173 173.97 395.629 173.597 394.936C173.234 394.232 173.053 393.437 173.053 392.552ZM180.269 392.584C180.269 391.976 180.141 391.448 179.885 391C179.64 390.552 179.314 390.211 178.909 389.976C178.504 389.741 178.066 389.624 177.597 389.624C177.128 389.624 176.69 389.741 176.285 389.976C175.88 390.2 175.549 390.536 175.293 390.984C175.048 391.421 174.925 391.944 174.925 392.552C174.925 393.16 175.048 393.693 175.293 394.152C175.549 394.611 175.88 394.963 176.285 395.208C176.701 395.443 177.138 395.56 177.597 395.56C178.066 395.56 178.504 395.443 178.909 395.208C179.314 394.973 179.64 394.632 179.885 394.184C180.141 393.725 180.269 393.192 180.269 392.584ZM186.329 389.496C186.638 389.069 187.059 388.723 187.593 388.456C188.137 388.179 188.739 388.04 189.401 388.04C190.179 388.04 190.883 388.227 191.513 388.6C192.142 388.973 192.638 389.507 193.001 390.2C193.363 390.883 193.545 391.667 193.545 392.552C193.545 393.437 193.363 394.232 193.001 394.936C192.638 395.629 192.137 396.173 191.497 396.568C190.867 396.952 190.169 397.144 189.401 397.144C188.718 397.144 188.11 397.011 187.577 396.744C187.054 396.477 186.638 396.136 186.329 395.72V397H184.505V385.16H186.329V389.496ZM191.689 392.552C191.689 391.944 191.561 391.421 191.305 390.984C191.059 390.536 190.729 390.2 190.313 389.976C189.907 389.741 189.47 389.624 189.001 389.624C188.542 389.624 188.105 389.741 187.689 389.976C187.283 390.211 186.953 390.552 186.697 391C186.451 391.448 186.329 391.976 186.329 392.584C186.329 393.192 186.451 393.725 186.697 394.184C186.953 394.632 187.283 394.973 187.689 395.208C188.105 395.443 188.542 395.56 189.001 395.56C189.47 395.56 189.907 395.443 190.313 395.208C190.729 394.963 191.059 394.611 191.305 394.152C191.561 393.693 191.689 393.16 191.689 392.552ZM197.172 385.16V397H195.348V385.16H197.172ZM207.647 392.376C207.647 392.707 207.626 393.005 207.583 393.272H200.847C200.901 393.976 201.162 394.541 201.631 394.968C202.101 395.395 202.677 395.608 203.359 395.608C204.341 395.608 205.034 395.197 205.439 394.376H207.407C207.141 395.187 206.655 395.853 205.951 396.376C205.258 396.888 204.394 397.144 203.359 397.144C202.517 397.144 201.759 396.957 201.087 396.584C200.426 396.2 199.903 395.667 199.519 394.984C199.146 394.291 198.959 393.491 198.959 392.584C198.959 391.677 199.141 390.883 199.503 390.2C199.877 389.507 200.394 388.973 201.055 388.6C201.727 388.227 202.495 388.04 203.359 388.04C204.191 388.04 204.933 388.221 205.583 388.584C206.234 388.947 206.741 389.459 207.103 390.12C207.466 390.771 207.647 391.523 207.647 392.376ZM205.743 391.8C205.733 391.128 205.493 390.589 205.023 390.184C204.554 389.779 203.973 389.576 203.279 389.576C202.65 389.576 202.111 389.779 201.663 390.184C201.215 390.579 200.949 391.117 200.863 391.8H205.743ZM217.294 389.672H215.662V397H213.822V389.672H212.782V388.184H213.822V387.56C213.822 386.547 214.089 385.811 214.622 385.352C215.166 384.883 216.014 384.648 217.166 384.648V386.168C216.612 386.168 216.222 386.275 215.998 386.488C215.774 386.691 215.662 387.048 215.662 387.56V388.184H217.294V389.672ZM222.735 397.144C221.903 397.144 221.151 396.957 220.479 396.584C219.807 396.2 219.279 395.667 218.895 394.984C218.511 394.291 218.319 393.491 218.319 392.584C218.319 391.688 218.516 390.893 218.911 390.2C219.306 389.507 219.844 388.973 220.527 388.6C221.21 388.227 221.972 388.04 222.815 388.04C223.658 388.04 224.42 388.227 225.103 388.6C225.786 388.973 226.324 389.507 226.719 390.2C227.114 390.893 227.311 391.688 227.311 392.584C227.311 393.48 227.108 394.275 226.703 394.968C226.298 395.661 225.743 396.2 225.039 396.584C224.346 396.957 223.578 397.144 222.735 397.144ZM222.735 395.56C223.204 395.56 223.642 395.448 224.047 395.224C224.463 395 224.799 394.664 225.055 394.216C225.311 393.768 225.439 393.224 225.439 392.584C225.439 391.944 225.316 391.405 225.071 390.968C224.826 390.52 224.5 390.184 224.095 389.96C223.69 389.736 223.252 389.624 222.783 389.624C222.314 389.624 221.876 389.736 221.471 389.96C221.076 390.184 220.762 390.52 220.527 390.968C220.292 391.405 220.175 391.944 220.175 392.584C220.175 393.533 220.415 394.269 220.895 394.792C221.386 395.304 221.999 395.56 222.735 395.56ZM230.938 389.464C231.205 389.016 231.557 388.669 231.994 388.424C232.442 388.168 232.97 388.04 233.578 388.04V389.928H233.114C232.399 389.928 231.855 390.109 231.482 390.472C231.119 390.835 230.938 391.464 230.938 392.36V397H229.114V388.184H230.938V389.464ZM238.803 392.552C238.803 391.667 238.984 390.883 239.347 390.2C239.72 389.517 240.222 388.989 240.851 388.616C241.491 388.232 242.195 388.04 242.963 388.04C243.656 388.04 244.259 388.179 244.771 388.456C245.294 388.723 245.71 389.059 246.019 389.464V388.184H247.859V397H246.019V395.688C245.71 396.104 245.288 396.451 244.755 396.728C244.222 397.005 243.614 397.144 242.931 397.144C242.174 397.144 241.48 396.952 240.851 396.568C240.222 396.173 239.72 395.629 239.347 394.936C238.984 394.232 238.803 393.437 238.803 392.552ZM246.019 392.584C246.019 391.976 245.891 391.448 245.635 391C245.39 390.552 245.064 390.211 244.659 389.976C244.254 389.741 243.816 389.624 243.347 389.624C242.878 389.624 242.44 389.741 242.035 389.976C241.63 390.2 241.299 390.536 241.043 390.984C240.798 391.421 240.675 391.944 240.675 392.552C240.675 393.16 240.798 393.693 241.043 394.152C241.299 394.611 241.63 394.963 242.035 395.208C242.451 395.443 242.888 395.56 243.347 395.56C243.816 395.56 244.254 395.443 244.659 395.208C245.064 394.973 245.39 394.632 245.635 394.184C245.891 393.725 246.019 393.192 246.019 392.584ZM265.083 388.04C265.776 388.04 266.395 388.184 266.939 388.472C267.494 388.76 267.926 389.187 268.235 389.752C268.555 390.317 268.715 391 268.715 391.8V397H266.907V392.072C266.907 391.283 266.71 390.68 266.315 390.264C265.92 389.837 265.382 389.624 264.699 389.624C264.016 389.624 263.472 389.837 263.067 390.264C262.672 390.68 262.475 391.283 262.475 392.072V397H260.667V392.072C260.667 391.283 260.47 390.68 260.075 390.264C259.68 389.837 259.142 389.624 258.459 389.624C257.776 389.624 257.232 389.837 256.827 390.264C256.432 390.68 256.235 391.283 256.235 392.072V397H254.411V388.184H256.235V389.192C256.534 388.829 256.912 388.547 257.371 388.344C257.83 388.141 258.32 388.04 258.843 388.04C259.547 388.04 260.176 388.189 260.731 388.488C261.286 388.787 261.712 389.219 262.011 389.784C262.278 389.251 262.694 388.829 263.259 388.52C263.824 388.2 264.432 388.04 265.083 388.04ZM274.86 397.144C274.028 397.144 273.276 396.957 272.604 396.584C271.932 396.2 271.404 395.667 271.02 394.984C270.636 394.291 270.444 393.491 270.444 392.584C270.444 391.688 270.641 390.893 271.036 390.2C271.431 389.507 271.969 388.973 272.652 388.6C273.335 388.227 274.097 388.04 274.94 388.04C275.783 388.04 276.545 388.227 277.228 388.6C277.911 388.973 278.449 389.507 278.844 390.2C279.239 390.893 279.436 391.688 279.436 392.584C279.436 393.48 279.233 394.275 278.828 394.968C278.423 395.661 277.868 396.2 277.164 396.584C276.471 396.957 275.703 397.144 274.86 397.144ZM274.86 395.56C275.329 395.56 275.767 395.448 276.172 395.224C276.588 395 276.924 394.664 277.18 394.216C277.436 393.768 277.564 393.224 277.564 392.584C277.564 391.944 277.441 391.405 277.196 390.968C276.951 390.52 276.625 390.184 276.22 389.96C275.815 389.736 275.377 389.624 274.908 389.624C274.439 389.624 274.001 389.736 273.596 389.96C273.201 390.184 272.887 390.52 272.652 390.968C272.417 391.405 272.3 391.944 272.3 392.584C272.3 393.533 272.54 394.269 273.02 394.792C273.511 395.304 274.124 395.56 274.86 395.56ZM291.911 388.04C292.604 388.04 293.223 388.184 293.767 388.472C294.322 388.76 294.754 389.187 295.063 389.752C295.383 390.317 295.543 391 295.543 391.8V397H293.735V392.072C293.735 391.283 293.538 390.68 293.143 390.264C292.748 389.837 292.21 389.624 291.527 389.624C290.844 389.624 290.3 389.837 289.895 390.264C289.5 390.68 289.303 391.283 289.303 392.072V397H287.495V392.072C287.495 391.283 287.298 390.68 286.903 390.264C286.508 389.837 285.97 389.624 285.287 389.624C284.604 389.624 284.06 389.837 283.655 390.264C283.26 390.68 283.063 391.283 283.063 392.072V397H281.239V388.184H283.063V389.192C283.362 388.829 283.74 388.547 284.199 388.344C284.658 388.141 285.148 388.04 285.671 388.04C286.375 388.04 287.004 388.189 287.559 388.488C288.114 388.787 288.54 389.219 288.839 389.784C289.106 389.251 289.522 388.829 290.087 388.52C290.652 388.2 291.26 388.04 291.911 388.04ZM305.944 392.376C305.944 392.707 305.923 393.005 305.88 393.272H299.144C299.197 393.976 299.459 394.541 299.928 394.968C300.397 395.395 300.973 395.608 301.656 395.608C302.637 395.608 303.331 395.197 303.736 394.376H305.704C305.437 395.187 304.952 395.853 304.248 396.376C303.555 396.888 302.691 397.144 301.656 397.144C300.813 397.144 300.056 396.957 299.384 396.584C298.723 396.2 298.2 395.667 297.816 394.984C297.443 394.291 297.256 393.491 297.256 392.584C297.256 391.677 297.437 390.883 297.8 390.2C298.173 389.507 298.691 388.973 299.352 388.6C300.024 388.227 300.792 388.04 301.656 388.04C302.488 388.04 303.229 388.221 303.88 388.584C304.531 388.947 305.037 389.459 305.4 390.12C305.763 390.771 305.944 391.523 305.944 392.376ZM304.04 391.8C304.029 391.128 303.789 390.589 303.32 390.184C302.851 389.779 302.269 389.576 301.576 389.576C300.947 389.576 300.408 389.779 299.96 390.184C299.512 390.579 299.245 391.117 299.16 391.8H304.04ZM312.187 388.04C312.88 388.04 313.499 388.184 314.043 388.472C314.598 388.76 315.03 389.187 315.339 389.752C315.648 390.317 315.803 391 315.803 391.8V397H313.995V392.072C313.995 391.283 313.798 390.68 313.403 390.264C313.008 389.837 312.47 389.624 311.787 389.624C311.104 389.624 310.56 389.837 310.155 390.264C309.76 390.68 309.563 391.283 309.563 392.072V397H307.739V388.184H309.563V389.192C309.862 388.829 310.24 388.547 310.699 388.344C311.168 388.141 311.664 388.04 312.187 388.04ZM320.258 389.672V394.552C320.258 394.883 320.332 395.123 320.482 395.272C320.642 395.411 320.908 395.48 321.282 395.48H322.402V397H320.962C320.14 397 319.511 396.808 319.074 396.424C318.636 396.04 318.418 395.416 318.418 394.552V389.672H317.378V388.184H318.418V385.992H320.258V388.184H322.402V389.672H320.258Z" fill="#9E9E9E"/>
</g>
<defs>
<filter id="filter0_d_83_9775" x="0" y="0" width="456" height="470" filterUnits="userSpaceOnUse" color-interpolation-filters="sRGB">
<feFlood flood-opacity="0" result="BackgroundImageFix"/>
<feColorMatrix in="SourceAlpha" type="matrix" values="0 0 0 0 0 0 0 0 0 0 0 0 0 0 0 0 0 0 127 0" result="hardAlpha"/>
<feOffset dy="20"/>
<feGaussianBlur stdDeviation="15"/>
<feComposite in2="hardAlpha" operator="out"/>
<feColorMatrix type="matrix" values="0 0 0 0 0.570833 0 0 0 0 0.570833 0 0 0 0 0.570833 0 0 0 0.19 0"/>
<feBlend mode="normal" in2="BackgroundImageFix" result="effect1_dropShadow_83_9775"/>
<feBlend mode="normal" in="SourceGraphic" in2="effect1_dropShadow_83_9775" result="shape"/>
</filter>
<filter id="filter1_d_83_9775" x="137" y="63.5566" width="184.537" height="215.029" filterUnits="userSpaceOnUse" color-interpolation-filters="sRGB">
<feFlood flood-opacity="0" result="BackgroundImageFix"/>
<feColorMatrix in="SourceAlpha" type="matrix" values="0 0 0 0 0 0 0 0 0 0 0 0 0 0 0 0 0 0 127 0" result="hardAlpha"/>
<feOffset dy="20"/>
<feGaussianBlur stdDeviation="15"/>
<feComposite in2="hardAlpha" operator="out"/>
<feColorMatrix type="matrix" values="0 0 0 0 0.570833 0 0 0 0 0.570833 0 0 0 0 0.570833 0 0 0 0.19 0"/>
<feBlend mode="normal" in2="BackgroundImageFix" result="effect1_dropShadow_83_9775"/>
<feBlend mode="normal" in="SourceGraphic" in2="effect1_dropShadow_83_9775" result="shape"/>
</filter>
<filter id="filter2_d_83_9775" x="294" y="47.4238" width="96.2188" height="66.3887" filterUnits="userSpaceOnUse" color-interpolation-filters="sRGB">
<feFlood flood-opacity="0" result="BackgroundImageFix"/>
<feColorMatrix in="SourceAlpha" type="matrix" values="0 0 0 0 0 0 0 0 0 0 0 0 0 0 0 0 0 0 127 0" result="hardAlpha"/>
<feOffset dx="6" dy="4"/>
<feGaussianBlur stdDeviation="6.5"/>
<feComposite in2="hardAlpha" operator="out"/>
<feColorMatrix type="matrix" values="0 0 0 0 0.104618 0 0 0 0 0.465612 0 0 0 0 0.545833 0 0 0 0.09 0"/>
<feBlend mode="normal" in2="BackgroundImageFix" result="effect1_dropShadow_83_9775"/>
<feBlend mode="normal" in="SourceGraphic" in2="effect1_dropShadow_83_9775" result="shape"/>
</filter>
<filter id="filter3_b_83_9775" x="201" y="111" width="125" height="124" filterUnits="userSpaceOnUse" color-interpolation-filters="sRGB">
<feFlood flood-opacity="0" result="BackgroundImageFix"/>
<feGaussianBlur in="BackgroundImage" stdDeviation="4"/>
<feComposite in2="SourceAlpha" operator="in" result="effect1_backgroundBlur_83_9775"/>
<feBlend mode="normal" in="SourceGraphic" in2="effect1_backgroundBlur_83_9775" result="shape"/>
</filter>
<linearGradient id="paint0_linear_83_9775" x1="227.075" y1="-0.0749469" x2="229.533" y2="421.347" gradientUnits="userSpaceOnUse">
<stop stop-color="#F2F2F2"/>
<stop offset="1" stop-color="#EFEFEF"/>
</linearGradient>
<clipPath id="clip0_83_9775">
<rect width="300" height="300" fill="white" transform="translate(78 10)"/>
</clipPath>
</defs>
</svg>
