<svg width="24" height="24" viewBox="0 0 24 24" fill="none" xmlns="http://www.w3.org/2000/svg">
<path fill-rule="evenodd" clip-rule="evenodd" d="M1.5 2.67391C1.5 2.02558 2.03096 1.5 2.68592 1.5H4.47699C5.85406 1.5 7.02158 2.50233 7.21633 3.85176L7.4793 5.67391H19.7319C21.4781 5.67391 22.7878 7.25528 22.4453 8.95023L20.9695 16.2546C20.7108 17.5349 19.5751 18.4565 18.2561 18.4565H9.32808C7.95101 18.4565 6.78349 17.4542 6.58874 16.1048L5.27675 7.01384L4.86832 4.18379C4.8405 3.99102 4.67371 3.84783 4.47699 3.84783H2.68592C2.03096 3.84783 1.5 3.32225 1.5 2.67391ZM7.81814 8.02174L8.93675 15.7727C8.96457 15.9655 9.13136 16.1087 9.32808 16.1087H18.2561C18.4445 16.1087 18.6068 15.977 18.6437 15.7941L20.1195 8.48978C20.1685 8.24765 19.9814 8.02174 19.7319 8.02174H7.81814ZM10.065 20.9348C10.065 21.7992 9.35706 22.5 8.48377 22.5C7.61048 22.5 6.90254 21.7992 6.90254 20.9348C6.90254 20.0703 7.61048 19.3696 8.48377 19.3696C9.35706 19.3696 10.065 20.0703 10.065 20.9348ZM19.0253 22.5C19.8986 22.5 20.6065 21.7992 20.6065 20.9348C20.6065 20.0703 19.8986 19.3696 19.0253 19.3696C18.152 19.3696 17.4441 20.0703 17.4441 20.9348C17.4441 21.7992 18.152 22.5 19.0253 22.5Z" fill="#FFF2F2"/>
<path d="M8.93675 15.7727L7.81814 8.02174H19.7319C19.9814 8.02174 20.1685 8.24765 20.1195 8.48978L18.6437 15.7941C18.6068 15.977 18.4445 16.1087 18.2561 16.1087H9.32808C9.13136 16.1087 8.96457 15.9655 8.93675 15.7727Z" fill="#FFF2F2"/>
</svg>
