<svg width="24" height="24" viewBox="0 0 24 24" fill="none" xmlns="http://www.w3.org/2000/svg">
<path fill-rule="evenodd" clip-rule="evenodd" d="M2 3C2 2.44772 2.45267 2 3.01108 2H5.1674C6.17373 2 7.02692 2.73186 7.16923 3.71716L7.49897 6H19.9772C21.2532 6 22.2103 7.15465 21.96 8.39223L20.3423 16.3922C20.1533 17.3271 19.3234 18 18.3594 18H8.94336C7.93704 18 7.08385 17.2681 6.94153 16.2828L5.62115 7.14142L5.1674 4H3.01108C2.45267 4 2 3.55228 2 3ZM7.78785 8L8.94336 16L18.3594 16L19.9772 8H7.78785ZM10.0886 20.5C10.0886 21.3284 9.40961 22 8.57201 22C7.7344 22 7.05539 21.3284 7.05539 20.5C7.05539 19.6716 7.7344 19 8.57201 19C9.40961 19 10.0886 19.6716 10.0886 20.5ZM18.6828 22C19.5204 22 20.1994 21.3284 20.1994 20.5C20.1994 19.6716 19.5204 19 18.6828 19C17.8452 19 17.1662 19.6716 17.1662 20.5C17.1662 21.3284 17.8452 22 18.6828 22Z" fill="#7B61FF"/>
</svg>
