<svg width="16" height="16" viewBox="0 0 16 16" fill="none" xmlns="http://www.w3.org/2000/svg">
<path fill-rule="evenodd" clip-rule="evenodd" d="M1 14.2152C1 13.7818 1.34822 13.4304 1.77778 13.4304H14.2222C14.6518 13.4304 15 13.7818 15 14.2152C15 14.6486 14.6518 15 14.2222 15H1.77778C1.34822 15 1 14.6486 1 14.2152Z" fill="#7B61FF"/>
<path d="M12.7183 2.64621C12.625 2.552 12.4764 2.54364 12.3732 2.62679L4.77839 8.74829C4.74971 8.77141 4.72621 8.80042 4.70947 8.83339L4.22305 9.7913C4.10825 10.0174 4.34795 10.2592 4.572 10.1434L5.62681 9.59807C5.64225 9.59009 5.65685 9.58057 5.6704 9.56965L13.1765 3.51962C13.2973 3.42226 13.3074 3.24055 13.198 3.13025L12.7183 2.64621Z" fill="#7B61FF"/>
<path fill-rule="evenodd" clip-rule="evenodd" d="M11.4023 1.40045C12.1244 0.81841 13.1647 0.876928 13.8183 1.53635L14.298 2.02039C15.0632 2.7925 14.9929 4.06445 14.1474 4.74596L6.64127 10.796C6.54641 10.8724 6.44419 10.9391 6.33615 10.995L5.28134 11.5403C3.71299 12.3511 2.03505 10.658 2.83864 9.07557L3.32506 8.11766C3.44226 7.88686 3.60671 7.68381 3.80753 7.52195L11.4023 1.40045ZM12.3732 2.62679C12.4764 2.54364 12.625 2.552 12.7183 2.64621L13.198 3.13025C13.3074 3.24055 13.2973 3.42226 13.1765 3.51962L5.6704 9.56965C5.65685 9.58057 5.64225 9.59009 5.62681 9.59807L4.572 10.1434C4.34795 10.2592 4.10825 10.0174 4.22305 9.7913L4.70947 8.83339C4.72621 8.80042 4.74971 8.77141 4.77839 8.74829L12.3732 2.62679Z" fill="#7B61FF"/>
</svg>
