<svg width="16" height="16" viewBox="0 0 16 16" fill="none" xmlns="http://www.w3.org/2000/svg">
<path fill-rule="evenodd" clip-rule="evenodd" d="M13.8183 1.53635C13.1647 0.876928 12.1244 0.81841 11.4023 1.40045L3.80753 7.52195C3.60671 7.68381 3.44226 7.88686 3.32506 8.11766L2.83864 9.07557C2.03505 10.658 3.71299 12.3511 5.28134 11.5403L6.33615 10.995C6.44419 10.9391 6.54641 10.8724 6.64127 10.796L14.1474 4.74596C14.9929 4.06445 15.0632 2.7925 14.298 2.02039L13.8183 1.53635ZM12.3732 2.62679C12.4764 2.54364 12.625 2.552 12.7183 2.64621L13.198 3.13025C13.3074 3.24055 13.2973 3.42226 13.1765 3.51962L5.6704 9.56965C5.65685 9.58057 5.64225 9.59009 5.62681 9.59807L4.572 10.1434C4.34795 10.2592 4.10825 10.0174 4.22305 9.7913L4.70947 8.83339C4.72621 8.80042 4.74971 8.77141 4.77839 8.74829L12.3732 2.62679ZM1.77778 13.4304C1.34822 13.4304 1 13.7818 1 14.2152C1 14.6486 1.34822 15 1.77778 15H14.2222C14.6518 15 15 14.6486 15 14.2152C15 13.7818 14.6518 13.4304 14.2222 13.4304H1.77778Z" fill="#7C7B7B"/>
</svg>
