<svg width="276" height="80" viewBox="0 0 276 80" fill="none" xmlns="http://www.w3.org/2000/svg">
<g filter="url(#filter0_d_81_7808)">
<rect width="70" height="60" transform="translate(10 10)" fill="#F9F9F9"/>
<mask id="mask0_81_7808" style="mask-type:alpha" maskUnits="userSpaceOnUse" x="24" y="19" width="42" height="42">
<path d="M44.9135 19.8341L27.7293 19.8547L32.2414 24.3668C27.7211 28.0597 24.834 33.6775 24.834 39.97C24.834 40.0391 24.8343 40.1081 24.835 40.177L24.8523 57.2719L29.3676 52.7598C33.0605 57.28 38.6784 60.1672 44.9709 60.1672C51.5193 60.1672 57.3369 57.0415 61.0144 52.2009L53.6185 44.7272C51.9091 47.8886 48.5663 49.92 44.9711 49.92C41.7386 49.92 38.5189 48.0219 36.802 45.3274L42.0372 40.0922L35.0819 40.0908C35.0814 40.0507 35.0811 40.0105 35.0811 39.9703C35.0811 36.7378 36.9792 33.5181 39.6738 31.8012L44.909 37.0364L44.9103 30.082C44.9506 30.0815 44.9908 30.0812 45.0311 30.0812C48.2636 30.0812 51.4833 31.9793 53.2002 34.6739L47.965 39.9091L65.1667 39.9124L65.1673 39.9136L65.1467 22.7294L60.6346 27.2415C56.9417 22.7212 51.3239 19.8341 45.0314 19.8341C44.9918 19.8341 44.953 19.8339 44.9135 19.8341Z" fill="black"/>
</mask>
<g mask="url(#mask0_81_7808)">
<path d="M65.1678 39.9135C65.1678 39.8833 65.1472 22.7293 65.1472 22.7293L60.6351 27.2414C56.9422 22.7211 51.3243 19.834 45.0318 19.834C38.4834 19.834 32.6658 22.9597 28.9883 27.8003L36.3842 35.274C38.0936 32.1126 41.4364 30.0811 45.0316 30.0811C48.2641 30.0811 51.4838 31.9792 53.2007 34.6738L47.9655 39.909L65.1672 39.9123" fill="#1C3AA9"/>
<g filter="url(#filter1_d_81_7808)">
<path d="M44.9135 19.834L27.7293 19.8546L32.2414 24.3667C27.7211 28.0596 24.834 33.6774 24.834 39.9699C24.834 46.5183 27.9597 52.3359 32.8003 56.0135L40.274 48.6176C37.1126 46.9082 35.0811 43.5653 35.0811 39.9702C35.0811 36.7377 36.9792 33.518 39.6738 31.8011L44.909 37.0363L44.9123 19.8346" fill="#4285F4"/>
</g>
<g filter="url(#filter2_d_81_7808)">
<path d="M24.834 40.0879L24.8514 57.2721L29.3667 52.76C33.0596 57.2803 38.6774 60.1674 44.9699 60.1674C51.5183 60.1674 57.3359 57.0417 61.0135 52.2011L53.6176 44.7274C51.9082 47.8888 48.5654 49.9202 44.9702 49.9202C41.7377 49.9202 38.518 48.0222 36.8011 45.3276L42.0363 40.0924L24.8346 40.0891" fill="#ABABAB"/>
</g>
</g>
<rect width="186" height="60" transform="translate(80 10)" fill="#4A90E2"/>
<path d="M98.0693 28.4521V36.6406H96.8887V27.1318H97.9678L98.0693 28.4521ZM102.697 30.5088V30.6421C102.697 31.1414 102.638 31.6048 102.519 32.0322C102.401 32.4554 102.227 32.8236 101.999 33.1367C101.774 33.4499 101.497 33.6932 101.167 33.8667C100.837 34.0402 100.458 34.127 100.031 34.127C99.5949 34.127 99.2098 34.055 98.8755 33.9111C98.5412 33.7673 98.2576 33.5578 98.0249 33.2827C97.7922 33.0076 97.606 32.6776 97.4663 32.2925C97.3309 31.9074 97.2378 31.4736 97.187 30.9912V30.2803C97.2378 29.7725 97.333 29.3175 97.4727 28.9155C97.6123 28.5135 97.7964 28.1707 98.0249 27.8872C98.2576 27.5994 98.5391 27.3815 98.8691 27.2334C99.1992 27.0811 99.5801 27.0049 100.012 27.0049C100.443 27.0049 100.826 27.0895 101.161 27.2588C101.495 27.4238 101.776 27.6608 102.005 27.9697C102.233 28.2786 102.405 28.6489 102.519 29.0806C102.638 29.508 102.697 29.984 102.697 30.5088ZM101.516 30.6421V30.5088C101.516 30.166 101.48 29.8444 101.408 29.5439C101.336 29.2393 101.224 28.9727 101.072 28.7441C100.924 28.5114 100.733 28.3294 100.5 28.1982C100.268 28.0628 99.9906 27.9951 99.6689 27.9951C99.3727 27.9951 99.1146 28.0459 98.8945 28.1475C98.6787 28.249 98.4946 28.3866 98.3423 28.5601C98.1899 28.7293 98.0651 28.924 97.9678 29.144C97.8747 29.3599 97.8049 29.5841 97.7583 29.8169V31.4609C97.8429 31.7572 97.9614 32.0365 98.1138 32.2988C98.2661 32.557 98.4692 32.7664 98.7231 32.9272C98.9771 33.0838 99.2965 33.1621 99.6816 33.1621C99.999 33.1621 100.272 33.0965 100.5 32.9653C100.733 32.8299 100.924 32.6458 101.072 32.4131C101.224 32.1803 101.336 31.9137 101.408 31.6133C101.48 31.3086 101.516 30.9849 101.516 30.6421ZM105.369 28.2109V34H104.195V27.1318H105.337L105.369 28.2109ZM107.515 27.0938L107.508 28.1855C107.411 28.1644 107.318 28.1517 107.229 28.1475C107.144 28.139 107.047 28.1348 106.937 28.1348C106.666 28.1348 106.427 28.1771 106.22 28.2617C106.012 28.3464 105.837 28.4648 105.693 28.6172C105.549 28.7695 105.435 28.9515 105.35 29.1631C105.27 29.3704 105.217 29.599 105.191 29.8486L104.861 30.0391C104.861 29.6243 104.902 29.235 104.982 28.8711C105.067 28.5072 105.196 28.1855 105.369 27.9062C105.543 27.6227 105.763 27.4027 106.029 27.2461C106.3 27.0853 106.622 27.0049 106.994 27.0049C107.079 27.0049 107.176 27.0155 107.286 27.0366C107.396 27.0535 107.472 27.0726 107.515 27.0938ZM108.162 30.6421V30.4961C108.162 30.001 108.234 29.5418 108.378 29.1187C108.522 28.6912 108.729 28.321 109 28.0078C109.271 27.6904 109.599 27.445 109.984 27.2715C110.369 27.0938 110.801 27.0049 111.279 27.0049C111.761 27.0049 112.195 27.0938 112.58 27.2715C112.969 27.445 113.299 27.6904 113.57 28.0078C113.845 28.321 114.055 28.6912 114.199 29.1187C114.343 29.5418 114.415 30.001 114.415 30.4961V30.6421C114.415 31.1372 114.343 31.5964 114.199 32.0195C114.055 32.4427 113.845 32.813 113.57 33.1304C113.299 33.4435 112.972 33.689 112.586 33.8667C112.206 34.0402 111.774 34.127 111.292 34.127C110.809 34.127 110.375 34.0402 109.99 33.8667C109.605 33.689 109.275 33.4435 109 33.1304C108.729 32.813 108.522 32.4427 108.378 32.0195C108.234 31.5964 108.162 31.1372 108.162 30.6421ZM109.336 30.4961V30.6421C109.336 30.9849 109.377 31.3086 109.457 31.6133C109.537 31.9137 109.658 32.1803 109.819 32.4131C109.984 32.6458 110.189 32.8299 110.435 32.9653C110.68 33.0965 110.966 33.1621 111.292 33.1621C111.613 33.1621 111.895 33.0965 112.136 32.9653C112.381 32.8299 112.584 32.6458 112.745 32.4131C112.906 32.1803 113.027 31.9137 113.107 31.6133C113.192 31.3086 113.234 30.9849 113.234 30.6421V30.4961C113.234 30.1576 113.192 29.8381 113.107 29.5376C113.027 29.2329 112.904 28.9642 112.739 28.7314C112.578 28.4945 112.375 28.3083 112.129 28.1729C111.888 28.0374 111.605 27.9697 111.279 27.9697C110.957 27.9697 110.674 28.0374 110.428 28.1729C110.187 28.3083 109.984 28.4945 109.819 28.7314C109.658 28.9642 109.537 29.2329 109.457 29.5376C109.377 29.8381 109.336 30.1576 109.336 30.4961ZM118.763 27.1318V28.0332H115.049V27.1318H118.763ZM116.306 25.4624H117.48V32.2988C117.48 32.5316 117.516 32.7072 117.588 32.8257C117.66 32.9442 117.753 33.0225 117.868 33.0605C117.982 33.0986 118.105 33.1177 118.236 33.1177C118.333 33.1177 118.435 33.1092 118.541 33.0923C118.651 33.0711 118.733 33.0542 118.788 33.0415L118.794 34C118.701 34.0296 118.579 34.0571 118.426 34.0825C118.278 34.1121 118.098 34.127 117.887 34.127C117.599 34.127 117.334 34.0698 117.093 33.9556C116.852 33.8413 116.66 33.6509 116.516 33.3843C116.376 33.1134 116.306 32.7495 116.306 32.2925V25.4624ZM122.99 34.127C122.512 34.127 122.078 34.0465 121.689 33.8857C121.304 33.7207 120.972 33.4901 120.692 33.1938C120.417 32.8976 120.206 32.5464 120.058 32.1401C119.91 31.7339 119.835 31.2896 119.835 30.8071V30.5405C119.835 29.9819 119.918 29.4847 120.083 29.0488C120.248 28.6087 120.472 28.2363 120.756 27.9316C121.039 27.627 121.361 27.3963 121.721 27.2397C122.08 27.0832 122.453 27.0049 122.838 27.0049C123.329 27.0049 123.752 27.0895 124.107 27.2588C124.467 27.4281 124.761 27.665 124.99 27.9697C125.218 28.2702 125.388 28.6257 125.498 29.0361C125.608 29.4424 125.663 29.8867 125.663 30.3691V30.896H120.534V29.9375H124.488V29.8486C124.471 29.5439 124.408 29.2477 124.298 28.96C124.192 28.6722 124.023 28.4352 123.79 28.249C123.557 28.0628 123.24 27.9697 122.838 27.9697C122.571 27.9697 122.326 28.0269 122.102 28.1411C121.877 28.2511 121.685 28.4162 121.524 28.6362C121.363 28.8563 121.238 29.125 121.149 29.4424C121.061 29.7598 121.016 30.1258 121.016 30.5405V30.8071C121.016 31.133 121.061 31.4398 121.149 31.7275C121.243 32.0111 121.376 32.2607 121.549 32.4766C121.727 32.6924 121.941 32.8617 122.19 32.9844C122.444 33.1071 122.732 33.1685 123.054 33.1685C123.468 33.1685 123.82 33.0838 124.107 32.9146C124.395 32.7453 124.647 32.5189 124.863 32.2354L125.574 32.8003C125.426 33.0246 125.237 33.2383 125.009 33.4414C124.78 33.6445 124.499 33.8096 124.165 33.9365C123.834 34.0635 123.443 34.127 122.99 34.127ZM129.782 33.1621C130.062 33.1621 130.32 33.105 130.557 32.9907C130.794 32.8765 130.988 32.7199 131.141 32.521C131.293 32.3179 131.38 32.0872 131.401 31.8291H132.518C132.497 32.2354 132.359 32.6141 132.105 32.9653C131.856 33.3123 131.528 33.5938 131.122 33.8096C130.715 34.0212 130.269 34.127 129.782 34.127C129.266 34.127 128.815 34.036 128.43 33.854C128.049 33.672 127.732 33.4224 127.478 33.105C127.228 32.7876 127.04 32.4237 126.913 32.0132C126.79 31.5985 126.729 31.1605 126.729 30.6992V30.4326C126.729 29.9714 126.79 29.5355 126.913 29.125C127.04 28.7103 127.228 28.3442 127.478 28.0269C127.732 27.7095 128.049 27.4598 128.43 27.2778C128.815 27.0959 129.266 27.0049 129.782 27.0049C130.32 27.0049 130.789 27.1149 131.191 27.335C131.593 27.5508 131.909 27.847 132.137 28.2236C132.37 28.596 132.497 29.0192 132.518 29.4932H131.401C131.38 29.2096 131.299 28.9536 131.16 28.7251C131.024 28.4966 130.838 28.3146 130.601 28.1792C130.368 28.0396 130.095 27.9697 129.782 27.9697C129.423 27.9697 129.12 28.0417 128.875 28.1855C128.633 28.3252 128.441 28.5156 128.297 28.7568C128.157 28.9938 128.056 29.2583 127.992 29.5503C127.933 29.8381 127.903 30.1322 127.903 30.4326V30.6992C127.903 30.9997 127.933 31.2959 127.992 31.5879C128.051 31.8799 128.151 32.1444 128.291 32.3813C128.434 32.6183 128.627 32.8088 128.868 32.9526C129.114 33.0923 129.418 33.1621 129.782 33.1621ZM136.714 27.1318V28.0332H133V27.1318H136.714ZM134.257 25.4624H135.432V32.2988C135.432 32.5316 135.468 32.7072 135.54 32.8257C135.611 32.9442 135.705 33.0225 135.819 33.0605C135.933 33.0986 136.056 33.1177 136.187 33.1177C136.284 33.1177 136.386 33.1092 136.492 33.0923C136.602 33.0711 136.684 33.0542 136.739 33.0415L136.746 34C136.653 34.0296 136.53 34.0571 136.377 34.0825C136.229 34.1121 136.049 34.127 135.838 34.127C135.55 34.127 135.286 34.0698 135.044 33.9556C134.803 33.8413 134.611 33.6509 134.467 33.3843C134.327 33.1134 134.257 32.7495 134.257 32.2925V25.4624ZM140.941 34.127C140.463 34.127 140.029 34.0465 139.64 33.8857C139.255 33.7207 138.923 33.4901 138.644 33.1938C138.368 32.8976 138.157 32.5464 138.009 32.1401C137.861 31.7339 137.787 31.2896 137.787 30.8071V30.5405C137.787 29.9819 137.869 29.4847 138.034 29.0488C138.199 28.6087 138.424 28.2363 138.707 27.9316C138.991 27.627 139.312 27.3963 139.672 27.2397C140.032 27.0832 140.404 27.0049 140.789 27.0049C141.28 27.0049 141.703 27.0895 142.059 27.2588C142.418 27.4281 142.712 27.665 142.941 27.9697C143.169 28.2702 143.339 28.6257 143.449 29.0361C143.559 29.4424 143.614 29.8867 143.614 30.3691V30.896H138.485V29.9375H142.439V29.8486C142.423 29.5439 142.359 29.2477 142.249 28.96C142.143 28.6722 141.974 28.4352 141.741 28.249C141.508 28.0628 141.191 27.9697 140.789 27.9697C140.522 27.9697 140.277 28.0269 140.053 28.1411C139.828 28.2511 139.636 28.4162 139.475 28.6362C139.314 28.8563 139.189 29.125 139.101 29.4424C139.012 29.7598 138.967 30.1258 138.967 30.5405V30.8071C138.967 31.133 139.012 31.4398 139.101 31.7275C139.194 32.0111 139.327 32.2607 139.5 32.4766C139.678 32.6924 139.892 32.8617 140.142 32.9844C140.396 33.1071 140.683 33.1685 141.005 33.1685C141.42 33.1685 141.771 33.0838 142.059 32.9146C142.346 32.7453 142.598 32.5189 142.814 32.2354L143.525 32.8003C143.377 33.0246 143.188 33.2383 142.96 33.4414C142.731 33.6445 142.45 33.8096 142.116 33.9365C141.786 34.0635 141.394 34.127 140.941 34.127ZM149.314 32.667V24.25H150.495V34H149.416L149.314 32.667ZM144.693 30.6421V30.5088C144.693 29.984 144.756 29.508 144.883 29.0806C145.014 28.6489 145.199 28.2786 145.436 27.9697C145.677 27.6608 145.962 27.4238 146.292 27.2588C146.627 27.0895 146.999 27.0049 147.41 27.0049C147.841 27.0049 148.218 27.0811 148.54 27.2334C148.865 27.3815 149.14 27.5994 149.365 27.8872C149.593 28.1707 149.773 28.5135 149.904 28.9155C150.035 29.3175 150.126 29.7725 150.177 30.2803V30.8643C150.131 31.3678 150.04 31.8206 149.904 32.2227C149.773 32.6247 149.593 32.9674 149.365 33.251C149.14 33.5345 148.865 33.7524 148.54 33.9048C148.214 34.0529 147.833 34.127 147.397 34.127C146.995 34.127 146.627 34.0402 146.292 33.8667C145.962 33.6932 145.677 33.4499 145.436 33.1367C145.199 32.8236 145.014 32.4554 144.883 32.0322C144.756 31.6048 144.693 31.1414 144.693 30.6421ZM145.874 30.5088V30.6421C145.874 30.9849 145.907 31.3065 145.975 31.6069C146.047 31.9074 146.157 32.1719 146.305 32.4004C146.453 32.6289 146.642 32.8088 146.87 32.9399C147.099 33.0669 147.372 33.1304 147.689 33.1304C148.078 33.1304 148.398 33.0479 148.647 32.8828C148.901 32.7178 149.104 32.4998 149.257 32.229C149.409 31.9582 149.528 31.6641 149.612 31.3467V29.8169C149.562 29.5841 149.487 29.3599 149.39 29.144C149.297 28.924 149.174 28.7293 149.022 28.5601C148.874 28.3866 148.69 28.249 148.47 28.1475C148.254 28.0459 147.998 27.9951 147.702 27.9951C147.38 27.9951 147.103 28.0628 146.87 28.1982C146.642 28.3294 146.453 28.5114 146.305 28.7441C146.157 28.9727 146.047 29.2393 145.975 29.5439C145.907 29.8444 145.874 30.166 145.874 30.5088ZM155.541 24.25H156.722V32.667L156.62 34H155.541V24.25ZM161.362 30.5088V30.6421C161.362 31.1414 161.303 31.6048 161.184 32.0322C161.066 32.4554 160.892 32.8236 160.664 33.1367C160.435 33.4499 160.156 33.6932 159.826 33.8667C159.496 34.0402 159.117 34.127 158.689 34.127C158.254 34.127 157.871 34.0529 157.541 33.9048C157.215 33.7524 156.94 33.5345 156.715 33.251C156.491 32.9674 156.311 32.6247 156.176 32.2227C156.045 31.8206 155.954 31.3678 155.903 30.8643V30.2803C155.954 29.7725 156.045 29.3175 156.176 28.9155C156.311 28.5135 156.491 28.1707 156.715 27.8872C156.94 27.5994 157.215 27.3815 157.541 27.2334C157.866 27.0811 158.245 27.0049 158.677 27.0049C159.108 27.0049 159.491 27.0895 159.826 27.2588C160.16 27.4238 160.439 27.6608 160.664 27.9697C160.892 28.2786 161.066 28.6489 161.184 29.0806C161.303 29.508 161.362 29.984 161.362 30.5088ZM160.181 30.6421V30.5088C160.181 30.166 160.149 29.8444 160.086 29.5439C160.022 29.2393 159.921 28.9727 159.781 28.7441C159.642 28.5114 159.458 28.3294 159.229 28.1982C159 28.0628 158.719 27.9951 158.385 27.9951C158.089 27.9951 157.83 28.0459 157.61 28.1475C157.395 28.249 157.21 28.3866 157.058 28.5601C156.906 28.7293 156.781 28.924 156.684 29.144C156.59 29.3599 156.521 29.5841 156.474 29.8169V31.3467C156.542 31.6429 156.652 31.9285 156.804 32.2036C156.961 32.4744 157.168 32.6966 157.426 32.8701C157.689 33.0436 158.012 33.1304 158.397 33.1304C158.715 33.1304 158.986 33.0669 159.21 32.9399C159.438 32.8088 159.623 32.6289 159.762 32.4004C159.906 32.1719 160.012 31.9074 160.08 31.6069C160.147 31.3065 160.181 30.9849 160.181 30.6421ZM164.701 33.2891L166.611 27.1318H167.868L165.113 35.0601C165.05 35.2293 164.965 35.4113 164.859 35.606C164.758 35.8049 164.627 35.9932 164.466 36.1709C164.305 36.3486 164.11 36.4925 163.882 36.6025C163.658 36.7168 163.389 36.7739 163.076 36.7739C162.983 36.7739 162.864 36.7612 162.72 36.7358C162.576 36.7104 162.475 36.6893 162.416 36.6724L162.409 35.7202C162.443 35.7244 162.496 35.7287 162.568 35.7329C162.644 35.7414 162.697 35.7456 162.727 35.7456C162.993 35.7456 163.22 35.7096 163.406 35.6377C163.592 35.57 163.749 35.4536 163.875 35.2886C164.007 35.1278 164.119 34.9056 164.212 34.6221L164.701 33.2891ZM163.298 27.1318L165.082 32.4639L165.386 33.7017L164.542 34.1333L162.016 27.1318H163.298ZM173.581 28.4395V34H172.051V27.1318H173.511L173.581 28.4395ZM175.682 27.0874L175.669 28.5093C175.576 28.4924 175.475 28.4797 175.365 28.4712C175.259 28.4627 175.153 28.4585 175.047 28.4585C174.785 28.4585 174.554 28.4966 174.355 28.5728C174.157 28.6447 173.989 28.7505 173.854 28.8901C173.723 29.0256 173.621 29.1906 173.549 29.3853C173.477 29.5799 173.435 29.7979 173.422 30.0391L173.073 30.0645C173.073 29.6328 173.116 29.2329 173.2 28.8647C173.285 28.4966 173.412 28.1729 173.581 27.8936C173.755 27.6143 173.97 27.3963 174.229 27.2397C174.491 27.0832 174.793 27.0049 175.136 27.0049C175.229 27.0049 175.329 27.0133 175.435 27.0303C175.545 27.0472 175.627 27.0662 175.682 27.0874ZM179.542 34.127C179.034 34.127 178.575 34.0444 178.164 33.8794C177.758 33.7101 177.411 33.4753 177.123 33.1748C176.84 32.8743 176.622 32.521 176.469 32.1147C176.317 31.7085 176.241 31.2705 176.241 30.8008V30.5469C176.241 30.0094 176.319 29.5228 176.476 29.0869C176.632 28.651 176.85 28.2786 177.129 27.9697C177.409 27.6566 177.739 27.4175 178.12 27.2524C178.5 27.0874 178.913 27.0049 179.357 27.0049C179.848 27.0049 180.278 27.0874 180.646 27.2524C181.014 27.4175 181.319 27.6502 181.56 27.9507C181.806 28.2469 181.987 28.6003 182.106 29.0107C182.229 29.4212 182.29 29.874 182.29 30.3691V31.0229H176.983V29.9248H180.779V29.8042C180.771 29.5291 180.716 29.271 180.614 29.0298C180.517 28.7886 180.367 28.5939 180.164 28.4458C179.96 28.2977 179.69 28.2236 179.351 28.2236C179.097 28.2236 178.871 28.2786 178.672 28.3887C178.477 28.4945 178.314 28.6489 178.183 28.8521C178.052 29.0552 177.95 29.3006 177.878 29.5884C177.811 29.8719 177.777 30.1914 177.777 30.5469V30.8008C177.777 31.1012 177.817 31.3805 177.897 31.6387C177.982 31.8926 178.105 32.1147 178.266 32.3052C178.426 32.4956 178.621 32.6458 178.85 32.7559C179.078 32.8617 179.338 32.9146 179.63 32.9146C179.999 32.9146 180.326 32.8405 180.614 32.6924C180.902 32.5443 181.152 32.3348 181.363 32.064L182.169 32.8447C182.021 33.0605 181.829 33.2679 181.592 33.4668C181.355 33.6615 181.065 33.8201 180.722 33.9429C180.384 34.0656 179.99 34.127 179.542 34.127ZM189.095 30.9912H190.682C190.631 31.5964 190.462 32.1359 190.174 32.6099C189.886 33.0796 189.482 33.4499 188.961 33.7207C188.441 33.9915 187.808 34.127 187.063 34.127C186.492 34.127 185.978 34.0254 185.521 33.8223C185.064 33.6149 184.673 33.3229 184.347 32.9463C184.021 32.5654 183.771 32.1063 183.598 31.5688C183.428 31.0314 183.344 30.4305 183.344 29.7661V28.998C183.344 28.3337 183.431 27.7327 183.604 27.1953C183.782 26.6579 184.036 26.1987 184.366 25.8179C184.696 25.4328 185.091 25.1387 185.553 24.9355C186.018 24.7324 186.541 24.6309 187.121 24.6309C187.857 24.6309 188.479 24.7663 188.987 25.0371C189.495 25.3079 189.888 25.6825 190.167 26.1606C190.451 26.6388 190.625 27.1868 190.688 27.8047H189.101C189.059 27.4069 188.966 27.0662 188.822 26.7827C188.682 26.4992 188.475 26.2834 188.2 26.1353C187.925 25.9829 187.565 25.9067 187.121 25.9067C186.757 25.9067 186.439 25.9744 186.168 26.1099C185.898 26.2453 185.671 26.4442 185.489 26.7065C185.307 26.9689 185.17 27.2926 185.077 27.6777C184.988 28.0586 184.943 28.4945 184.943 28.9854V29.7661C184.943 30.2316 184.984 30.6548 185.064 31.0356C185.149 31.4123 185.276 31.736 185.445 32.0068C185.618 32.2777 185.838 32.4871 186.105 32.6353C186.372 32.7834 186.691 32.8574 187.063 32.8574C187.516 32.8574 187.882 32.7855 188.162 32.6416C188.445 32.4977 188.659 32.2882 188.803 32.0132C188.951 31.7339 189.048 31.3932 189.095 30.9912ZM195.728 25.9893L192.967 34H191.297L194.776 24.7578H195.842L195.728 25.9893ZM198.039 34L195.271 25.9893L195.15 24.7578H196.223L199.714 34H198.039ZM197.905 30.5723V31.8354H192.878V30.5723H197.905ZM204.259 30.5532H201.854V29.29H204.259C204.678 29.29 205.017 29.2223 205.275 29.0869C205.533 28.9515 205.721 28.7653 205.84 28.5283C205.963 28.2871 206.024 28.012 206.024 27.7031C206.024 27.4111 205.963 27.1382 205.84 26.8843C205.721 26.6261 205.533 26.4188 205.275 26.2622C205.017 26.1056 204.678 26.0273 204.259 26.0273H202.342V34H200.749V24.7578H204.259C204.974 24.7578 205.582 24.8848 206.081 25.1387C206.585 25.3883 206.968 25.7354 207.23 26.1797C207.492 26.6198 207.624 27.1234 207.624 27.6904C207.624 28.2871 207.492 28.7992 207.23 29.2266C206.968 29.654 206.585 29.9819 206.081 30.2104C205.582 30.439 204.974 30.5532 204.259 30.5532ZM212.854 24.7578V34H211.273V24.7578H212.854ZM215.755 24.7578V26.0273H208.398V24.7578H215.755ZM222.255 30.9912H223.842C223.791 31.5964 223.622 32.1359 223.334 32.6099C223.046 33.0796 222.642 33.4499 222.122 33.7207C221.601 33.9915 220.968 34.127 220.224 34.127C219.652 34.127 219.138 34.0254 218.681 33.8223C218.224 33.6149 217.833 33.3229 217.507 32.9463C217.181 32.5654 216.931 32.1063 216.758 31.5688C216.589 31.0314 216.504 30.4305 216.504 29.7661V28.998C216.504 28.3337 216.591 27.7327 216.764 27.1953C216.942 26.6579 217.196 26.1987 217.526 25.8179C217.856 25.4328 218.252 25.1387 218.713 24.9355C219.178 24.7324 219.701 24.6309 220.281 24.6309C221.017 24.6309 221.639 24.7663 222.147 25.0371C222.655 25.3079 223.048 25.6825 223.328 26.1606C223.611 26.6388 223.785 27.1868 223.848 27.8047H222.261C222.219 27.4069 222.126 27.0662 221.982 26.7827C221.842 26.4992 221.635 26.2834 221.36 26.1353C221.085 25.9829 220.725 25.9067 220.281 25.9067C219.917 25.9067 219.599 25.9744 219.329 26.1099C219.058 26.2453 218.831 26.4442 218.649 26.7065C218.467 26.9689 218.33 27.2926 218.237 27.6777C218.148 28.0586 218.104 28.4945 218.104 28.9854V29.7661C218.104 30.2316 218.144 30.6548 218.224 31.0356C218.309 31.4123 218.436 31.736 218.605 32.0068C218.778 32.2777 218.999 32.4871 219.265 32.6353C219.532 32.7834 219.851 32.8574 220.224 32.8574C220.676 32.8574 221.042 32.7855 221.322 32.6416C221.605 32.4977 221.819 32.2882 221.963 32.0132C222.111 31.7339 222.208 31.3932 222.255 30.9912ZM231.396 28.6172V29.8804H226.489V28.6172H231.396ZM226.882 24.7578V34H225.289V24.7578H226.882ZM232.621 24.7578V34H231.034V24.7578H232.621ZM238.232 25.9893L235.471 34H233.801L237.28 24.7578H238.346L238.232 25.9893ZM240.542 34L237.775 25.9893L237.654 24.7578H238.727L242.218 34H240.542ZM240.409 30.5723V31.8354H235.382V30.5723H240.409Z" fill="white"/>
<path d="M99.4473 50.2119H97.5479V49.4453H99.4473C99.8151 49.4453 100.113 49.3867 100.341 49.2695C100.569 49.1523 100.735 48.9896 100.839 48.7812C100.946 48.5729 101 48.3353 101 48.0684C101 47.8242 100.946 47.5947 100.839 47.3799C100.735 47.165 100.569 46.9925 100.341 46.8623C100.113 46.7288 99.8151 46.6621 99.4473 46.6621H97.7676V53H96.8252V45.8906H99.4473C99.9844 45.8906 100.438 45.9834 100.81 46.1689C101.181 46.3545 101.462 46.6117 101.654 46.9404C101.846 47.266 101.942 47.6387 101.942 48.0586C101.942 48.5143 101.846 48.9033 101.654 49.2256C101.462 49.5479 101.181 49.7936 100.81 49.9629C100.438 50.1289 99.9844 50.2119 99.4473 50.2119ZM103.8 48.5469V53H102.897V47.7168H103.776L103.8 48.5469ZM105.451 47.6875L105.446 48.5273C105.371 48.5111 105.299 48.5013 105.231 48.498C105.166 48.4915 105.091 48.4883 105.006 48.4883C104.798 48.4883 104.614 48.5208 104.455 48.5859C104.295 48.651 104.16 48.7422 104.049 48.8594C103.939 48.9766 103.851 49.1165 103.786 49.2793C103.724 49.4388 103.683 49.6146 103.664 49.8066L103.41 49.9531C103.41 49.6341 103.441 49.3346 103.503 49.0547C103.568 48.7747 103.667 48.5273 103.8 48.3125C103.934 48.0944 104.103 47.9251 104.308 47.8047C104.517 47.681 104.764 47.6191 105.05 47.6191C105.115 47.6191 105.19 47.6273 105.275 47.6436C105.36 47.6566 105.418 47.6712 105.451 47.6875ZM107.167 47.7168V53H106.259V47.7168H107.167ZM106.191 46.3154C106.191 46.1689 106.235 46.0452 106.322 45.9443C106.414 45.8434 106.547 45.793 106.723 45.793C106.895 45.793 107.027 45.8434 107.118 45.9443C107.213 46.0452 107.26 46.1689 107.26 46.3154C107.26 46.4554 107.213 46.5758 107.118 46.6768C107.027 46.7744 106.895 46.8232 106.723 46.8232C106.547 46.8232 106.414 46.7744 106.322 46.6768C106.235 46.5758 106.191 46.4554 106.191 46.3154ZM110.124 52.1846L111.569 47.7168H112.492L110.593 53H109.987L110.124 52.1846ZM108.918 47.7168L110.407 52.209L110.51 53H109.904L107.99 47.7168H108.918ZM116.298 52.0967V49.377C116.298 49.1686 116.256 48.988 116.171 48.835C116.09 48.6787 115.966 48.5583 115.8 48.4736C115.634 48.389 115.429 48.3467 115.185 48.3467C114.957 48.3467 114.757 48.3857 114.584 48.4639C114.415 48.542 114.282 48.6445 114.184 48.7715C114.09 48.8984 114.042 49.0352 114.042 49.1816H113.139C113.139 48.9928 113.188 48.8057 113.286 48.6201C113.383 48.4346 113.523 48.2669 113.705 48.1172C113.891 47.9642 114.112 47.8438 114.37 47.7559C114.63 47.6647 114.92 47.6191 115.239 47.6191C115.623 47.6191 115.961 47.6842 116.254 47.8145C116.551 47.9447 116.782 48.1416 116.948 48.4053C117.117 48.6657 117.202 48.9928 117.202 49.3867V51.8477C117.202 52.0234 117.216 52.2106 117.246 52.4092C117.278 52.6077 117.325 52.7786 117.387 52.9219V53H116.445C116.399 52.8958 116.363 52.7575 116.337 52.585C116.311 52.4092 116.298 52.2464 116.298 52.0967ZM116.454 49.7969L116.464 50.4316H115.551C115.294 50.4316 115.065 50.4528 114.863 50.4951C114.661 50.5342 114.492 50.5944 114.355 50.6758C114.218 50.7572 114.114 50.8597 114.042 50.9834C113.971 51.1038 113.935 51.2454 113.935 51.4082C113.935 51.5742 113.972 51.7256 114.047 51.8623C114.122 51.999 114.234 52.1081 114.384 52.1895C114.537 52.2676 114.724 52.3066 114.946 52.3066C115.222 52.3066 115.467 52.248 115.678 52.1309C115.89 52.0137 116.057 51.8704 116.181 51.7012C116.308 51.5319 116.376 51.3675 116.386 51.208L116.772 51.6426C116.749 51.7793 116.687 51.9307 116.586 52.0967C116.485 52.2627 116.35 52.4222 116.181 52.5752C116.015 52.7249 115.816 52.8503 115.585 52.9512C115.357 53.0488 115.1 53.0977 114.814 53.0977C114.456 53.0977 114.142 53.0277 113.871 52.8877C113.605 52.7477 113.396 52.5605 113.246 52.3262C113.1 52.0885 113.027 51.8232 113.027 51.5303C113.027 51.2471 113.082 50.998 113.193 50.7832C113.303 50.5651 113.463 50.3844 113.671 50.2412C113.88 50.0947 114.13 49.984 114.423 49.9092C114.716 49.8343 115.043 49.7969 115.405 49.7969H116.454ZM120.637 52.3555C120.852 52.3555 121.05 52.3115 121.232 52.2236C121.415 52.1357 121.564 52.0153 121.682 51.8623C121.799 51.7061 121.866 51.5286 121.882 51.3301H122.741C122.725 51.6426 122.619 51.9339 122.424 52.2041C122.232 52.471 121.979 52.6875 121.667 52.8535C121.354 53.0163 121.011 53.0977 120.637 53.0977C120.24 53.0977 119.893 53.0277 119.597 52.8877C119.304 52.7477 119.06 52.5557 118.864 52.3115C118.672 52.0674 118.527 51.7874 118.43 51.4717C118.335 51.1527 118.288 50.8158 118.288 50.4609V50.2559C118.288 49.901 118.335 49.5658 118.43 49.25C118.527 48.931 118.672 48.6494 118.864 48.4053C119.06 48.1611 119.304 47.9691 119.597 47.8291C119.893 47.6891 120.24 47.6191 120.637 47.6191C121.05 47.6191 121.411 47.7038 121.721 47.873C122.03 48.0391 122.272 48.2669 122.448 48.5566C122.627 48.8431 122.725 49.1686 122.741 49.5332H121.882C121.866 49.3151 121.804 49.1182 121.696 48.9424C121.592 48.7666 121.449 48.6266 121.267 48.5225C121.088 48.415 120.878 48.3613 120.637 48.3613C120.36 48.3613 120.127 48.4167 119.938 48.5273C119.753 48.6348 119.605 48.7812 119.494 48.9668C119.387 49.1491 119.309 49.3525 119.26 49.5771C119.214 49.7985 119.191 50.0247 119.191 50.2559V50.4609C119.191 50.6921 119.214 50.9199 119.26 51.1445C119.305 51.3691 119.382 51.5726 119.489 51.7549C119.6 51.9372 119.748 52.0837 119.934 52.1943C120.122 52.3018 120.357 52.3555 120.637 52.3555ZM125.141 52.4531L126.611 47.7168H127.578L125.459 53.8154C125.41 53.9456 125.345 54.0856 125.263 54.2354C125.185 54.3883 125.084 54.5332 124.961 54.6699C124.837 54.8066 124.687 54.9173 124.511 55.002C124.339 55.0898 124.132 55.1338 123.891 55.1338C123.82 55.1338 123.728 55.124 123.618 55.1045C123.507 55.085 123.429 55.0687 123.383 55.0557L123.379 54.3232C123.405 54.3265 123.445 54.3298 123.501 54.333C123.559 54.3395 123.6 54.3428 123.623 54.3428C123.828 54.3428 124.002 54.3151 124.145 54.2598C124.288 54.2077 124.409 54.1182 124.506 53.9912C124.607 53.8675 124.694 53.6966 124.765 53.4785L125.141 52.4531ZM124.062 47.7168L125.434 51.8184L125.669 52.7705L125.019 53.1025L123.076 47.7168H124.062ZM132.554 49.6064V50.3486H130.171V49.6064H132.554ZM138.286 45.8906V53H137.358V45.8906H138.286ZM140.571 45.8906V46.6621H135.078V45.8906H140.571ZM143.093 53.0977C142.726 53.0977 142.392 53.0358 142.092 52.9121C141.796 52.7852 141.541 52.6077 141.326 52.3799C141.114 52.152 140.951 51.8818 140.838 51.5693C140.724 51.2568 140.667 50.915 140.667 50.5439V50.3389C140.667 49.9092 140.73 49.5267 140.857 49.1914C140.984 48.8529 141.157 48.5664 141.375 48.332C141.593 48.0977 141.84 47.9202 142.117 47.7998C142.393 47.6794 142.68 47.6191 142.976 47.6191C143.354 47.6191 143.679 47.6842 143.953 47.8145C144.229 47.9447 144.456 48.127 144.631 48.3613C144.807 48.5924 144.937 48.8659 145.022 49.1816C145.107 49.4941 145.149 49.8359 145.149 50.207V50.6123H141.204V49.875H144.246V49.8066C144.233 49.5723 144.184 49.3444 144.099 49.123C144.018 48.9017 143.888 48.7194 143.709 48.5762C143.53 48.4329 143.285 48.3613 142.976 48.3613C142.771 48.3613 142.582 48.4053 142.41 48.4932C142.237 48.5778 142.089 48.7048 141.965 48.874C141.842 49.0433 141.746 49.25 141.677 49.4941C141.609 49.7383 141.575 50.0199 141.575 50.3389V50.5439C141.575 50.7946 141.609 51.0306 141.677 51.252C141.749 51.4701 141.851 51.6621 141.985 51.8281C142.122 51.9941 142.286 52.1243 142.478 52.2188C142.673 52.3132 142.895 52.3604 143.142 52.3604C143.461 52.3604 143.731 52.2952 143.953 52.165C144.174 52.0348 144.368 51.8607 144.534 51.6426L145.081 52.0771C144.967 52.2497 144.822 52.4141 144.646 52.5703C144.47 52.7266 144.254 52.8535 143.997 52.9512C143.743 53.0488 143.442 53.0977 143.093 53.0977ZM147.007 48.5469V53H146.104V47.7168H146.983L147.007 48.5469ZM148.657 47.6875L148.653 48.5273C148.578 48.5111 148.506 48.5013 148.438 48.498C148.373 48.4915 148.298 48.4883 148.213 48.4883C148.005 48.4883 147.821 48.5208 147.661 48.5859C147.502 48.651 147.367 48.7422 147.256 48.8594C147.145 48.9766 147.057 49.1165 146.992 49.2793C146.931 49.4388 146.89 49.6146 146.87 49.8066L146.616 49.9531C146.616 49.6341 146.647 49.3346 146.709 49.0547C146.774 48.7747 146.874 48.5273 147.007 48.3125C147.14 48.0944 147.31 47.9251 147.515 47.8047C147.723 47.681 147.971 47.6191 148.257 47.6191C148.322 47.6191 148.397 47.6273 148.482 47.6436C148.566 47.6566 148.625 47.6712 148.657 47.6875ZM150.291 48.7666V53H149.383V47.7168H150.242L150.291 48.7666ZM150.105 50.1582L149.685 50.1436C149.689 49.7822 149.736 49.4486 149.827 49.1426C149.918 48.8333 150.053 48.5648 150.232 48.3369C150.411 48.109 150.634 47.9333 150.901 47.8096C151.168 47.6826 151.477 47.6191 151.829 47.6191C152.076 47.6191 152.304 47.6549 152.513 47.7266C152.721 47.7949 152.901 47.904 153.054 48.0537C153.207 48.2035 153.326 48.3955 153.411 48.6299C153.496 48.8643 153.538 49.1475 153.538 49.4795V53H152.635V49.5234C152.635 49.2467 152.587 49.0254 152.493 48.8594C152.402 48.6934 152.272 48.5729 152.102 48.498C151.933 48.4199 151.735 48.3809 151.507 48.3809C151.24 48.3809 151.017 48.4281 150.838 48.5225C150.659 48.6169 150.515 48.7471 150.408 48.9131C150.301 49.0791 150.222 49.2695 150.174 49.4844C150.128 49.696 150.105 49.9206 150.105 50.1582ZM153.528 49.6602L152.923 49.8457C152.926 49.556 152.973 49.2777 153.064 49.0107C153.159 48.7438 153.294 48.5062 153.47 48.2979C153.649 48.0895 153.868 47.9251 154.129 47.8047C154.389 47.681 154.687 47.6191 155.022 47.6191C155.305 47.6191 155.556 47.6566 155.774 47.7314C155.996 47.8063 156.181 47.9219 156.331 48.0781C156.484 48.2311 156.599 48.4281 156.678 48.6689C156.756 48.9098 156.795 49.1963 156.795 49.5283V53H155.887V49.5186C155.887 49.2223 155.839 48.9928 155.745 48.8301C155.654 48.6641 155.524 48.5485 155.354 48.4834C155.188 48.415 154.99 48.3809 154.759 48.3809C154.56 48.3809 154.384 48.415 154.231 48.4834C154.078 48.5518 153.95 48.6462 153.846 48.7666C153.741 48.8838 153.662 49.0189 153.606 49.1719C153.554 49.3249 153.528 49.4876 153.528 49.6602ZM161.138 51.5986C161.138 51.4684 161.109 51.348 161.05 51.2373C160.995 51.1234 160.879 51.0208 160.704 50.9297C160.531 50.8353 160.271 50.7539 159.922 50.6855C159.629 50.6237 159.364 50.5505 159.126 50.4658C158.892 50.3812 158.692 50.2786 158.526 50.1582C158.363 50.0378 158.238 49.8962 158.15 49.7334C158.062 49.5706 158.018 49.3802 158.018 49.1621C158.018 48.9538 158.064 48.7568 158.155 48.5713C158.249 48.3857 158.381 48.2214 158.55 48.0781C158.723 47.9349 158.929 47.8226 159.17 47.7412C159.411 47.6598 159.68 47.6191 159.976 47.6191C160.399 47.6191 160.76 47.694 161.06 47.8438C161.359 47.9935 161.589 48.1937 161.748 48.4443C161.908 48.6917 161.988 48.9668 161.988 49.2695H161.084C161.084 49.123 161.04 48.9814 160.953 48.8447C160.868 48.7048 160.743 48.5892 160.577 48.498C160.414 48.4069 160.214 48.3613 159.976 48.3613C159.725 48.3613 159.522 48.4004 159.366 48.4785C159.213 48.5534 159.1 48.6494 159.029 48.7666C158.96 48.8838 158.926 49.0075 158.926 49.1377C158.926 49.2354 158.942 49.3232 158.975 49.4014C159.011 49.4762 159.073 49.5462 159.161 49.6113C159.248 49.6732 159.372 49.7318 159.532 49.7871C159.691 49.8424 159.895 49.8978 160.142 49.9531C160.575 50.0508 160.931 50.168 161.211 50.3047C161.491 50.4414 161.7 50.609 161.836 50.8076C161.973 51.0062 162.041 51.2471 162.041 51.5303C162.041 51.7614 161.993 51.973 161.895 52.165C161.801 52.3571 161.662 52.5231 161.48 52.6631C161.301 52.7998 161.086 52.9072 160.835 52.9854C160.588 53.0602 160.31 53.0977 160 53.0977C159.535 53.0977 159.141 53.0146 158.819 52.8486C158.496 52.6826 158.252 52.4678 158.086 52.2041C157.92 51.9404 157.837 51.6621 157.837 51.3691H158.746C158.759 51.6165 158.83 51.8135 158.96 51.96C159.091 52.1032 159.25 52.2057 159.439 52.2676C159.628 52.3262 159.815 52.3555 160 52.3555C160.248 52.3555 160.454 52.3229 160.621 52.2578C160.79 52.1927 160.918 52.1032 161.006 51.9893C161.094 51.8753 161.138 51.7451 161.138 51.5986Z" fill="white"/>
</g>
<defs>
<filter id="filter0_d_81_7808" x="6" y="6" width="264" height="68" filterUnits="userSpaceOnUse" color-interpolation-filters="sRGB">
<feFlood flood-opacity="0" result="BackgroundImageFix"/>
<feColorMatrix in="SourceAlpha" type="matrix" values="0 0 0 0 0 0 0 0 0 0 0 0 0 0 0 0 0 0 127 0" result="hardAlpha"/>
<feOffset/>
<feGaussianBlur stdDeviation="2"/>
<feColorMatrix type="matrix" values="0 0 0 0 0 0 0 0 0 0 0 0 0 0 0 0 0 0 0.12 0"/>
<feBlend mode="normal" in2="BackgroundImageFix" result="effect1_dropShadow_81_7808"/>
<feBlend mode="normal" in="SourceGraphic" in2="effect1_dropShadow_81_7808" result="shape"/>
</filter>
<filter id="filter1_d_81_7808" x="18.834" y="13.834" width="32.0801" height="48.1797" filterUnits="userSpaceOnUse" color-interpolation-filters="sRGB">
<feFlood flood-opacity="0" result="BackgroundImageFix"/>
<feColorMatrix in="SourceAlpha" type="matrix" values="0 0 0 0 0 0 0 0 0 0 0 0 0 0 0 0 0 0 127 0" result="hardAlpha"/>
<feOffset/>
<feGaussianBlur stdDeviation="3"/>
<feColorMatrix type="matrix" values="0 0 0 0 0 0 0 0 0 0 0 0 0 0 0 0 0 0 0.24 0"/>
<feBlend mode="normal" in2="BackgroundImageFix" result="effect1_dropShadow_81_7808"/>
<feBlend mode="normal" in="SourceGraphic" in2="effect1_dropShadow_81_7808" result="shape"/>
</filter>
<filter id="filter2_d_81_7808" x="18.834" y="34.0879" width="48.1797" height="32.0801" filterUnits="userSpaceOnUse" color-interpolation-filters="sRGB">
<feFlood flood-opacity="0" result="BackgroundImageFix"/>
<feColorMatrix in="SourceAlpha" type="matrix" values="0 0 0 0 0 0 0 0 0 0 0 0 0 0 0 0 0 0 127 0" result="hardAlpha"/>
<feOffset/>
<feGaussianBlur stdDeviation="3"/>
<feColorMatrix type="matrix" values="0 0 0 0 0 0 0 0 0 0 0 0 0 0 0 0 0 0 0.24 0"/>
<feBlend mode="normal" in2="BackgroundImageFix" result="effect1_dropShadow_81_7808"/>
<feBlend mode="normal" in="SourceGraphic" in2="effect1_dropShadow_81_7808" result="shape"/>
</filter>
</defs>
</svg>
