<svg width="24" height="24" viewBox="0 0 24 24" fill="none" xmlns="http://www.w3.org/2000/svg">
<path fill-rule="evenodd" clip-rule="evenodd" d="M11.1666 4.2221C11.1666 4.00733 11.3407 3.83322 11.5555 3.83322H12.4445C12.6593 3.83322 12.8334 4.00733 12.8334 4.2221V4.64513C12.8334 5.50876 13.3213 6.29827 14.0938 6.6845C14.9716 7.12341 16.0318 6.95136 16.7258 6.25739L17.0584 5.92476C17.2103 5.7729 17.4565 5.7729 17.6083 5.92477L18.0752 6.39166C18.2271 6.54353 18.2271 6.78975 18.0752 6.94161L17.7426 7.27424C17.0486 7.96821 16.8766 9.02839 17.3155 9.9062C17.7017 10.6787 18.4912 11.1666 19.3549 11.1666H19.7779C19.9927 11.1666 20.1668 11.3407 20.1668 11.5555V12.4445C20.1668 12.6593 19.9927 12.8334 19.7779 12.8334H19.3549C18.4912 12.8334 17.7017 13.3213 17.3155 14.0938C16.8766 14.9716 17.0486 16.0318 17.7426 16.7258L18.0752 17.0584C18.2271 17.2103 18.2271 17.4565 18.0752 17.6083L17.6083 18.0752C17.4565 18.2271 17.2103 18.2271 17.0584 18.0752L16.7258 17.7426C16.0318 17.0486 14.9716 16.8766 14.0938 17.3155C13.3213 17.7017 12.8334 18.4912 12.8334 19.3549V19.7779C12.8334 19.9927 12.6593 20.1668 12.4445 20.1668H11.5555C11.3407 20.1668 11.1666 19.9927 11.1666 19.7779V19.3549C11.1666 18.4912 10.6787 17.7017 9.9062 17.3155C9.02839 16.8766 7.96821 17.0486 7.27424 17.7426L6.94161 18.0752C6.78975 18.2271 6.54353 18.2271 6.39166 18.0752L5.92477 17.6083C5.7729 17.4565 5.7729 17.2103 5.92476 17.0584L6.25739 16.7258C6.95136 16.0318 7.12341 14.9716 6.6845 14.0938C6.29827 13.3213 5.50876 12.8334 4.64512 12.8334H4.2221C4.00733 12.8334 3.83322 12.6593 3.83322 12.4445V11.5555C3.83322 11.3407 4.00733 11.1666 4.2221 11.1666H4.64513C5.50876 11.1666 6.29827 10.6787 6.6845 9.9062C7.12341 9.02839 6.95136 7.96821 6.25739 7.27424L5.92476 6.94161C5.7729 6.78975 5.7729 6.54353 5.92477 6.39166L6.39166 5.92477C6.54353 5.7729 6.78975 5.7729 6.94161 5.92476L7.27424 6.25739C7.96821 6.95136 9.02839 7.12341 9.9062 6.6845C10.6787 6.29827 11.1666 5.50876 11.1666 4.64512V4.2221ZM11.5555 1.5C10.0521 1.5 8.83338 2.71872 8.83338 4.2221V4.51686L8.59145 4.27493C7.5284 3.21188 5.80487 3.21188 4.74182 4.27493L4.27493 4.74182C3.21188 5.80487 3.21188 7.5284 4.27493 8.59145L4.51686 8.83338H4.2221C2.71872 8.83338 1.5 10.0521 1.5 11.5555V12.4445C1.5 13.9479 2.71872 15.1666 4.2221 15.1666H4.51686L4.27493 15.4086C3.21188 16.4716 3.21188 18.1951 4.27493 19.2582L4.74182 19.7251C5.80487 20.7881 7.5284 20.7881 8.59145 19.7251L8.83338 19.4831V19.7779C8.83338 21.2813 10.0521 22.5 11.5555 22.5H12.4445C13.9479 22.5 15.1666 21.2813 15.1666 19.7779V19.4831L15.4086 19.7251C16.4716 20.7881 18.1951 20.7881 19.2582 19.7251L19.7251 19.2582C20.7881 18.1951 20.7881 16.4716 19.7251 15.4086L19.4831 15.1666H19.7779C21.2813 15.1666 22.5 13.9479 22.5 12.4445V11.5555C22.5 10.0521 21.2813 8.83338 19.7779 8.83338H19.4831L19.7251 8.59145C20.7881 7.5284 20.7881 5.80487 19.7251 4.74182L19.2582 4.27493C18.1951 3.21188 16.4716 3.21188 15.4086 4.27493L15.1666 4.51686V4.2221C15.1666 2.71872 13.9479 1.5 12.4445 1.5H11.5555ZM10.4999 11.9996C10.4999 11.1713 11.1714 10.4999 11.9996 10.4999C12.8279 10.4999 13.4993 11.1713 13.4993 11.9996C13.4993 12.8278 12.8279 13.4993 11.9996 13.4993C11.1714 13.4993 10.4999 12.8278 10.4999 11.9996ZM11.9996 8.16667C9.88276 8.16667 8.16671 9.88272 8.16671 11.9996C8.16671 14.1164 9.88276 15.8325 11.9996 15.8325C14.1165 15.8325 15.8325 14.1164 15.8325 11.9996C15.8325 9.88272 14.1165 8.16667 11.9996 8.16667Z" fill="#FFF2F2"/>
<path fill-rule="evenodd" clip-rule="evenodd" d="M11.5555 3.83322C11.3407 3.83322 11.1666 4.00733 11.1666 4.2221V4.64512C11.1666 5.50876 10.6787 6.29827 9.9062 6.6845C9.02839 7.12341 7.96821 6.95136 7.27424 6.25739L6.94161 5.92476C6.78975 5.7729 6.54353 5.7729 6.39166 5.92477L5.92477 6.39166C5.7729 6.54353 5.7729 6.78975 5.92476 6.94161L6.25739 7.27424C6.95136 7.96821 7.12341 9.02839 6.6845 9.9062C6.29827 10.6787 5.50876 11.1666 4.64513 11.1666H4.2221C4.00733 11.1666 3.83322 11.3407 3.83322 11.5555V12.4445C3.83322 12.6593 4.00733 12.8334 4.2221 12.8334H4.64512C5.50876 12.8334 6.29827 13.3213 6.6845 14.0938C7.12341 14.9716 6.95136 16.0318 6.25739 16.7258L5.92476 17.0584C5.7729 17.2103 5.7729 17.4565 5.92477 17.6083L6.39166 18.0752C6.54353 18.2271 6.78975 18.2271 6.94161 18.0752L7.27424 17.7426C7.96821 17.0486 9.02839 16.8766 9.9062 17.3155C10.6787 17.7017 11.1666 18.4912 11.1666 19.3549V19.7779C11.1666 19.9927 11.3407 20.1668 11.5555 20.1668H12.4445C12.6593 20.1668 12.8334 19.9927 12.8334 19.7779V19.3549C12.8334 18.4912 13.3213 17.7017 14.0938 17.3155C14.9716 16.8766 16.0318 17.0486 16.7258 17.7426L17.0584 18.0752C17.2103 18.2271 17.4565 18.2271 17.6083 18.0752L18.0752 17.6083C18.2271 17.4565 18.2271 17.2103 18.0752 17.0584L17.7426 16.7258C17.0486 16.0318 16.8766 14.9716 17.3155 14.0938C17.7017 13.3213 18.4912 12.8334 19.3549 12.8334H19.7779C19.9927 12.8334 20.1668 12.6593 20.1668 12.4445V11.5555C20.1668 11.3407 19.9927 11.1666 19.7779 11.1666H19.3549C18.4912 11.1666 17.7017 10.6787 17.3155 9.9062C16.8766 9.02839 17.0486 7.96821 17.7426 7.27424L18.0752 6.94161C18.2271 6.78975 18.2271 6.54353 18.0752 6.39166L17.6083 5.92477C17.4565 5.7729 17.2103 5.7729 17.0584 5.92476L16.7258 6.25739C16.0318 6.95136 14.9716 7.12341 14.0938 6.6845C13.3213 6.29827 12.8334 5.50876 12.8334 4.64513V4.2221C12.8334 4.00733 12.6593 3.83322 12.4445 3.83322H11.5555ZM11.9996 8.16667C9.88276 8.16667 8.16671 9.88272 8.16671 11.9996C8.16671 14.1164 9.88276 15.8325 11.9996 15.8325C14.1165 15.8325 15.8325 14.1164 15.8325 11.9996C15.8325 9.88272 14.1165 8.16667 11.9996 8.16667Z" fill="#FFF2F2"/>
</svg>
