<svg width="24" height="24" viewBox="0 0 24 24" fill="none" xmlns="http://www.w3.org/2000/svg">
<path fill-rule="evenodd" clip-rule="evenodd" d="M18 19H16H8H6V7L10 7H14H18V19ZM10 10C10.5523 10 11 10.4477 11 11V15C11 15.5523 10.5523 16 10 16C9.44772 16 9 15.5523 9 15V11C9 10.4477 9.44772 10 10 10ZM15 11C15 10.4477 14.5523 10 14 10C13.4477 10 13 10.4477 13 11V15C13 15.5523 13.4477 16 14 16C14.5523 16 15 15.5523 15 15V11Z" fill="#FFF2F2"/>
<path fill-rule="evenodd" clip-rule="evenodd" d="M10 2C8.89543 2 8 2.89543 8 4V5H6C4.89543 5 4 5.89543 4 7V19C4 20.1046 4.89543 21 6 21H7C7 21.5523 7.44772 22 8 22C8.55228 22 9 21.5523 9 21H15C15 21.5523 15.4477 22 16 22C16.5523 22 17 21.5523 17 21H18C19.1046 21 20 20.1046 20 19V7C20 5.89543 19.1046 5 18 5H16V4C16 2.89543 15.1046 2 14 2H10ZM16 19H18V7H14H10L6 7V19H8H16ZM14 5V4H10V5H14Z" fill="#FFF2F2"/>
</svg>
