<svg width="24" height="24" viewBox="0 0 24 24" fill="none" xmlns="http://www.w3.org/2000/svg">
<path d="M10.8477 1.5C8.04853 1.5 5.68004 3.34415 4.89096 5.88378C4.68556 5.98266 4.47372 6.10776 4.27349 6.23931C3.85783 6.51239 3.40346 6.872 3.0501 7.23106C2.05549 8.24171 1.5 9.60853 1.5 11.0299C1.5 12.4512 2.05549 13.8181 3.0501 14.8287C3.23247 15.014 3.65904 15.3431 4.06944 15.6104C4.28696 15.7521 4.53913 15.9024 4.79242 16.0217C5.00574 16.1221 5.37519 16.2778 5.77778 16.2778H6.94444V15.1111V14.1893V11.0299V7.73663C6.94444 5.5809 8.69201 3.83333 10.8477 3.83333H12C14.7921 3.83333 17.0556 6.09678 17.0556 8.88889V11.0299V14.1893C17.0556 16.345 15.308 18.0926 13.1523 18.0926H12.9503C12.482 16.8792 11.3045 16.0185 9.92593 16.0185C8.13611 16.0185 6.68519 17.4694 6.68519 19.2593C6.68519 21.0491 8.13611 22.5 9.92593 22.5C11.3045 22.5 12.482 21.6393 12.9503 20.4259H13.1523C15.9411 20.4259 18.3023 18.5955 19.1002 16.0705C19.1393 16.0534 19.1752 16.0369 19.2076 16.0217C19.4609 15.9024 19.713 15.7521 19.9306 15.6104C20.341 15.3431 20.7675 15.014 20.9499 14.8287C21.9445 13.8181 22.5 12.4512 22.5 11.0299C22.5 9.60853 21.9445 8.24171 20.9499 7.23106C20.5965 6.872 20.1422 6.51239 19.7265 6.23931C19.5173 6.10188 19.2955 5.9715 19.0816 5.8707C18.9894 5.82725 18.8462 5.76301 18.6743 5.71471C17.4868 3.22243 14.9446 1.5 12 1.5H10.8477Z" fill="white"/>
</svg>
